<svg width="387" height="152" viewBox="0 0 387 152" fill="none" xmlns="http://www.w3.org/2000/svg">
<g clip-path="url(#clip0_167_1096)">
<path d="M0 0H347C369.091 0 387 17.9086 387 40V152H40C17.9086 152 0 134.091 0 112V0Z" fill="white" fill-opacity="0.12"/>
<path d="M32.8295 66V60.6818L45.2557 49.1761C46.3125 48.1534 47.1989 47.233 47.9148 46.4148C48.642 45.5966 49.1932 44.7955 49.5682 44.0114C49.9432 43.2159 50.1307 42.358 50.1307 41.4375C50.1307 40.4148 49.8977 39.5341 49.4318 38.7955C48.9659 38.0455 48.3295 37.4716 47.5227 37.0739C46.7159 36.6648 45.8011 36.4602 44.7784 36.4602C43.7102 36.4602 42.7784 36.6761 41.983 37.108C41.1875 37.5398 40.5739 38.1591 40.142 38.9659C39.7102 39.7727 39.4943 40.733 39.4943 41.8466H32.4886C32.4886 39.5625 33.0057 37.5795 34.0398 35.8977C35.0739 34.2159 36.5227 32.9148 38.3864 31.9943C40.25 31.0739 42.3977 30.6136 44.8295 30.6136C47.3295 30.6136 49.5057 31.0568 51.358 31.9432C53.2216 32.8182 54.6705 34.0341 55.7045 35.5909C56.7386 37.1477 57.2557 38.9318 57.2557 40.9432C57.2557 42.2614 56.9943 43.5625 56.4716 44.8466C55.9602 46.1307 55.0455 47.5568 53.7273 49.125C52.4091 50.6818 50.5511 52.5511 48.1534 54.733L43.0568 59.7273V59.9659H57.7159V66H32.8295ZM76.7514 66.767C73.8196 66.7557 71.2969 66.0341 69.1832 64.6023C67.081 63.1705 65.4616 61.0966 64.3253 58.3807C63.2003 55.6648 62.6435 52.3977 62.6548 48.5795C62.6548 44.7727 63.2173 41.5284 64.3423 38.8466C65.4787 36.1648 67.098 34.125 69.2003 32.7273C71.3139 31.3182 73.831 30.6136 76.7514 30.6136C79.6719 30.6136 82.1832 31.3182 84.2855 32.7273C86.3991 34.1364 88.0241 36.1818 89.1605 38.8636C90.2969 41.5341 90.8594 44.7727 90.848 48.5795C90.848 52.4091 90.2798 55.6818 89.1435 58.3977C88.0185 61.1136 86.4048 63.1875 84.3026 64.6193C82.2003 66.0511 79.6832 66.767 76.7514 66.767ZM76.7514 60.6477C78.7514 60.6477 80.348 59.642 81.5412 57.6307C82.7344 55.6193 83.3253 52.6023 83.3139 48.5795C83.3139 45.9318 83.0412 43.7273 82.4957 41.9659C81.9616 40.2045 81.2003 38.8807 80.2116 37.9943C79.2344 37.108 78.081 36.6648 76.7514 36.6648C74.7628 36.6648 73.1719 37.6591 71.9787 39.6477C70.7855 41.6364 70.1832 44.6136 70.1719 48.5795C70.1719 51.2614 70.4389 53.5 70.973 55.2955C71.5185 57.0795 72.2855 58.4205 73.2741 59.3182C74.2628 60.2045 75.4219 60.6477 76.7514 60.6477ZM109.798 66.767C106.866 66.7557 104.344 66.0341 102.23 64.6023C100.128 63.1705 98.5085 61.0966 97.3722 58.3807C96.2472 55.6648 95.6903 52.3977 95.7017 48.5795C95.7017 44.7727 96.2642 41.5284 97.3892 38.8466C98.5256 36.1648 100.145 34.125 102.247 32.7273C104.361 31.3182 106.878 30.6136 109.798 30.6136C112.719 30.6136 115.23 31.3182 117.332 32.7273C119.446 34.1364 121.071 36.1818 122.207 38.8636C123.344 41.5341 123.906 44.7727 123.895 48.5795C123.895 52.4091 123.327 55.6818 122.19 58.3977C121.065 61.1136 119.452 63.1875 117.349 64.6193C115.247 66.0511 112.73 66.767 109.798 66.767ZM109.798 60.6477C111.798 60.6477 113.395 59.642 114.588 57.6307C115.781 55.6193 116.372 52.6023 116.361 48.5795C116.361 45.9318 116.088 43.7273 115.543 41.9659C115.009 40.2045 114.247 38.8807 113.259 37.9943C112.281 37.108 111.128 36.6648 109.798 36.6648C107.81 36.6648 106.219 37.6591 105.026 39.6477C103.832 41.6364 103.23 44.6136 103.219 48.5795C103.219 51.2614 103.486 53.5 104.02 55.2955C104.565 57.0795 105.332 58.4205 106.321 59.3182C107.31 60.2045 108.469 60.6477 109.798 60.6477Z" fill="white"/>
<path d="M40.6705 97.3636V109H39.0568L33.142 100.466H33.0341V109H31.2784V97.3636H32.9034L38.8239 105.909H38.9318V97.3636H40.6705ZM48.6236 105.381V100.273H50.3281V109H48.6577V107.489H48.5668C48.366 107.955 48.044 108.343 47.6009 108.653C47.1615 108.96 46.6141 109.114 45.9588 109.114C45.3982 109.114 44.902 108.991 44.4702 108.744C44.0421 108.494 43.705 108.125 43.4588 107.636C43.2164 107.148 43.0952 106.544 43.0952 105.824V100.273H44.794V105.619C44.794 106.214 44.9588 106.687 45.2884 107.04C45.6179 107.392 46.0459 107.568 46.5724 107.568C46.8906 107.568 47.2069 107.489 47.5213 107.33C47.8395 107.17 48.1027 106.93 48.3111 106.608C48.5232 106.286 48.6274 105.877 48.6236 105.381ZM52.6108 109V100.273H54.2415V101.693H54.3494C54.5313 101.212 54.8286 100.837 55.2415 100.568C55.6544 100.295 56.1487 100.159 56.7244 100.159C57.3078 100.159 57.7964 100.295 58.1903 100.568C58.5881 100.841 58.8816 101.216 59.071 101.693H59.1619C59.3703 101.227 59.7017 100.856 60.1562 100.58C60.6108 100.299 61.1525 100.159 61.7812 100.159C62.5729 100.159 63.2188 100.407 63.7188 100.903C64.2225 101.4 64.4744 102.148 64.4744 103.148V109H62.7756V103.307C62.7756 102.716 62.6146 102.288 62.2926 102.023C61.9706 101.758 61.5862 101.625 61.1392 101.625C60.5862 101.625 60.1562 101.795 59.8494 102.136C59.5426 102.473 59.3892 102.907 59.3892 103.438V109H57.696V103.199C57.696 102.725 57.5483 102.345 57.2528 102.057C56.9574 101.769 56.5729 101.625 56.0994 101.625C55.7775 101.625 55.4801 101.71 55.2074 101.881C54.9384 102.047 54.7206 102.28 54.554 102.58C54.3911 102.879 54.3097 103.225 54.3097 103.619V109H52.6108ZM66.8878 109V97.3636H68.5866V101.688H68.6889C68.7874 101.506 68.9295 101.295 69.1151 101.057C69.3007 100.818 69.5582 100.61 69.8878 100.432C70.2173 100.25 70.6529 100.159 71.1946 100.159C71.8991 100.159 72.5279 100.337 73.081 100.693C73.634 101.049 74.0677 101.562 74.3821 102.233C74.7003 102.903 74.8594 103.71 74.8594 104.653C74.8594 105.597 74.7022 106.405 74.3878 107.08C74.0734 107.75 73.6416 108.267 73.0923 108.631C72.5431 108.991 71.9162 109.17 71.2116 109.17C70.6813 109.17 70.2476 109.081 69.9105 108.903C69.5772 108.725 69.3158 108.517 69.1264 108.278C68.937 108.04 68.7912 107.828 68.6889 107.642H68.5469V109H66.8878ZM68.5526 104.636C68.5526 105.25 68.6416 105.788 68.8196 106.25C68.9976 106.712 69.2552 107.074 69.5923 107.335C69.9295 107.593 70.3423 107.722 70.831 107.722C71.3385 107.722 71.7628 107.587 72.1037 107.318C72.4446 107.045 72.7022 106.676 72.8764 106.21C73.0545 105.744 73.1435 105.22 73.1435 104.636C73.1435 104.061 73.0563 103.544 72.8821 103.085C72.7116 102.627 72.4541 102.265 72.1094 102C71.7685 101.735 71.3423 101.602 70.831 101.602C70.3385 101.602 69.9219 101.729 69.581 101.983C69.2438 102.237 68.9882 102.591 68.8139 103.045C68.6397 103.5 68.5526 104.03 68.5526 104.636ZM80.5284 109.176C79.6686 109.176 78.928 108.992 78.3068 108.625C77.6894 108.254 77.2121 107.733 76.875 107.062C76.5417 106.388 76.375 105.598 76.375 104.693C76.375 103.799 76.5417 103.011 76.875 102.33C77.2121 101.648 77.6818 101.116 78.2841 100.733C78.8902 100.35 79.5985 100.159 80.4091 100.159C80.9015 100.159 81.3788 100.241 81.8409 100.403C82.303 100.566 82.7178 100.822 83.0852 101.17C83.4527 101.519 83.7424 101.972 83.9545 102.528C84.1667 103.081 84.2727 103.754 84.2727 104.545V105.148H77.3352V103.875H82.608C82.608 103.428 82.517 103.032 82.3352 102.688C82.1534 102.339 81.8977 102.064 81.5682 101.864C81.2424 101.663 80.8598 101.562 80.4205 101.562C79.9432 101.562 79.5265 101.68 79.1705 101.915C78.8182 102.146 78.5455 102.449 78.3523 102.824C78.1629 103.195 78.0682 103.598 78.0682 104.034V105.028C78.0682 105.612 78.1705 106.108 78.375 106.517C78.5833 106.926 78.8731 107.239 79.2443 107.455C79.6155 107.667 80.0492 107.773 80.5455 107.773C80.8674 107.773 81.161 107.727 81.4261 107.636C81.6913 107.542 81.9205 107.402 82.1136 107.216C82.3068 107.03 82.4545 106.801 82.5568 106.528L84.1648 106.818C84.036 107.292 83.8049 107.706 83.4716 108.062C83.142 108.415 82.7273 108.689 82.2273 108.886C81.7311 109.08 81.1648 109.176 80.5284 109.176ZM86.1577 109V100.273H87.7997V101.659H87.8906C88.0497 101.189 88.33 100.82 88.7315 100.551C89.1368 100.278 89.5952 100.142 90.1065 100.142C90.2126 100.142 90.3376 100.146 90.4815 100.153C90.6293 100.161 90.7448 100.17 90.8281 100.182V101.807C90.7599 101.788 90.6387 101.767 90.4645 101.744C90.2902 101.718 90.116 101.705 89.9418 101.705C89.5402 101.705 89.1823 101.79 88.8679 101.96C88.5573 102.127 88.3111 102.36 88.1293 102.659C87.9474 102.955 87.8565 103.292 87.8565 103.67V109H86.1577ZM100.209 109.176C99.3906 109.176 98.6766 108.989 98.0668 108.614C97.4569 108.239 96.9834 107.714 96.6463 107.04C96.3092 106.366 96.1406 105.578 96.1406 104.676C96.1406 103.771 96.3092 102.979 96.6463 102.301C96.9834 101.623 97.4569 101.097 98.0668 100.722C98.6766 100.347 99.3906 100.159 100.209 100.159C101.027 100.159 101.741 100.347 102.351 100.722C102.961 101.097 103.434 101.623 103.771 102.301C104.108 102.979 104.277 103.771 104.277 104.676C104.277 105.578 104.108 106.366 103.771 107.04C103.434 107.714 102.961 108.239 102.351 108.614C101.741 108.989 101.027 109.176 100.209 109.176ZM100.214 107.75C100.745 107.75 101.184 107.61 101.533 107.33C101.881 107.049 102.139 106.676 102.305 106.21C102.476 105.744 102.561 105.231 102.561 104.67C102.561 104.114 102.476 103.602 102.305 103.136C102.139 102.667 101.881 102.29 101.533 102.006C101.184 101.722 100.745 101.58 100.214 101.58C99.6804 101.58 99.2372 101.722 98.8849 102.006C98.5365 102.29 98.277 102.667 98.1065 103.136C97.9399 103.602 97.8565 104.114 97.8565 104.67C97.8565 105.231 97.9399 105.744 98.1065 106.21C98.277 106.676 98.5365 107.049 98.8849 107.33C99.2372 107.61 99.6804 107.75 100.214 107.75ZM110.327 100.273V101.636H105.395V100.273H110.327ZM106.747 109V99.2614C106.747 98.7159 106.866 98.2633 107.105 97.9034C107.344 97.5398 107.66 97.2689 108.054 97.0909C108.448 96.9091 108.876 96.8182 109.338 96.8182C109.679 96.8182 109.971 96.8466 110.213 96.9034C110.455 96.9564 110.635 97.0057 110.753 97.0511L110.355 98.4261C110.276 98.4034 110.173 98.3769 110.048 98.3466C109.923 98.3125 109.772 98.2955 109.594 98.2955C109.181 98.2955 108.885 98.3977 108.707 98.6023C108.533 98.8068 108.446 99.1023 108.446 99.4886V109H106.747ZM119.99 109.176C119.145 109.176 118.418 108.985 117.808 108.602C117.202 108.216 116.736 107.684 116.411 107.006C116.085 106.328 115.922 105.551 115.922 104.676C115.922 103.79 116.089 103.008 116.422 102.33C116.755 101.648 117.225 101.116 117.831 100.733C118.437 100.35 119.151 100.159 119.973 100.159C120.636 100.159 121.227 100.282 121.746 100.528C122.265 100.771 122.683 101.112 123.001 101.551C123.323 101.991 123.515 102.504 123.575 103.091H121.922C121.831 102.682 121.623 102.33 121.297 102.034C120.975 101.739 120.543 101.591 120.001 101.591C119.528 101.591 119.113 101.716 118.757 101.966C118.405 102.212 118.13 102.564 117.933 103.023C117.736 103.477 117.638 104.015 117.638 104.636C117.638 105.273 117.734 105.822 117.928 106.284C118.121 106.746 118.393 107.104 118.746 107.358C119.102 107.612 119.52 107.739 120.001 107.739C120.323 107.739 120.615 107.68 120.876 107.562C121.142 107.441 121.363 107.269 121.541 107.045C121.723 106.822 121.85 106.553 121.922 106.239H123.575C123.515 106.803 123.331 107.307 123.024 107.75C122.717 108.193 122.306 108.542 121.791 108.795C121.28 109.049 120.679 109.176 119.99 109.176ZM129.068 109.176C128.25 109.176 127.536 108.989 126.926 108.614C126.316 108.239 125.843 107.714 125.506 107.04C125.169 106.366 125 105.578 125 104.676C125 103.771 125.169 102.979 125.506 102.301C125.843 101.623 126.316 101.097 126.926 100.722C127.536 100.347 128.25 100.159 129.068 100.159C129.886 100.159 130.6 100.347 131.21 100.722C131.82 101.097 132.294 101.623 132.631 102.301C132.968 102.979 133.136 103.771 133.136 104.676C133.136 105.578 132.968 106.366 132.631 107.04C132.294 107.714 131.82 108.239 131.21 108.614C130.6 108.989 129.886 109.176 129.068 109.176ZM129.074 107.75C129.604 107.75 130.044 107.61 130.392 107.33C130.741 107.049 130.998 106.676 131.165 106.21C131.335 105.744 131.42 105.231 131.42 104.67C131.42 104.114 131.335 103.602 131.165 103.136C130.998 102.667 130.741 102.29 130.392 102.006C130.044 101.722 129.604 101.58 129.074 101.58C128.54 101.58 128.097 101.722 127.744 102.006C127.396 102.29 127.136 102.667 126.966 103.136C126.799 103.602 126.716 104.114 126.716 104.67C126.716 105.231 126.799 105.744 126.966 106.21C127.136 106.676 127.396 107.049 127.744 107.33C128.097 107.61 128.54 107.75 129.074 107.75ZM135.033 109V100.273H136.663V101.693H136.771C136.953 101.212 137.25 100.837 137.663 100.568C138.076 100.295 138.571 100.159 139.146 100.159C139.73 100.159 140.218 100.295 140.612 100.568C141.01 100.841 141.304 101.216 141.493 101.693H141.584C141.792 101.227 142.124 100.856 142.578 100.58C143.033 100.299 143.574 100.159 144.203 100.159C144.995 100.159 145.641 100.407 146.141 100.903C146.644 101.4 146.896 102.148 146.896 103.148V109H145.197V103.307C145.197 102.716 145.036 102.288 144.714 102.023C144.393 101.758 144.008 101.625 143.561 101.625C143.008 101.625 142.578 101.795 142.271 102.136C141.964 102.473 141.811 102.907 141.811 103.438V109H140.118V103.199C140.118 102.725 139.97 102.345 139.675 102.057C139.379 101.769 138.995 101.625 138.521 101.625C138.199 101.625 137.902 101.71 137.629 101.881C137.36 102.047 137.143 102.28 136.976 102.58C136.813 102.879 136.732 103.225 136.732 103.619V109H135.033ZM149.173 109V100.273H150.804V101.693H150.912C151.094 101.212 151.391 100.837 151.804 100.568C152.217 100.295 152.711 100.159 153.287 100.159C153.87 100.159 154.359 100.295 154.753 100.568C155.151 100.841 155.444 101.216 155.634 101.693H155.724C155.933 101.227 156.264 100.856 156.719 100.58C157.173 100.299 157.715 100.159 158.344 100.159C159.135 100.159 159.781 100.407 160.281 100.903C160.785 101.4 161.037 102.148 161.037 103.148V109H159.338V103.307C159.338 102.716 159.177 102.288 158.855 102.023C158.533 101.758 158.149 101.625 157.702 101.625C157.149 101.625 156.719 101.795 156.412 102.136C156.105 102.473 155.952 102.907 155.952 103.438V109H154.259V103.199C154.259 102.725 154.111 102.345 153.815 102.057C153.52 101.769 153.135 101.625 152.662 101.625C152.34 101.625 152.043 101.71 151.77 101.881C151.501 102.047 151.283 102.28 151.116 102.58C150.954 102.879 150.872 103.225 150.872 103.619V109H149.173ZM168.842 105.381V100.273H170.547V109H168.876V107.489H168.786C168.585 107.955 168.263 108.343 167.82 108.653C167.38 108.96 166.833 109.114 166.178 109.114C165.617 109.114 165.121 108.991 164.689 108.744C164.261 108.494 163.924 108.125 163.678 107.636C163.435 107.148 163.314 106.544 163.314 105.824V100.273H165.013V105.619C165.013 106.214 165.178 106.687 165.507 107.04C165.837 107.392 166.265 107.568 166.791 107.568C167.109 107.568 167.426 107.489 167.74 107.33C168.058 107.17 168.321 106.93 168.53 106.608C168.742 106.286 168.846 105.877 168.842 105.381ZM174.528 103.818V109H172.83V100.273H174.46V101.693H174.568C174.769 101.231 175.083 100.86 175.511 100.58C175.943 100.299 176.487 100.159 177.142 100.159C177.737 100.159 178.258 100.284 178.705 100.534C179.152 100.78 179.498 101.148 179.744 101.636C179.991 102.125 180.114 102.729 180.114 103.449V109H178.415V103.653C178.415 103.021 178.25 102.527 177.92 102.17C177.591 101.811 177.138 101.631 176.562 101.631C176.169 101.631 175.818 101.716 175.511 101.886C175.208 102.057 174.968 102.307 174.79 102.636C174.616 102.962 174.528 103.356 174.528 103.818ZM182.392 109V100.273H184.091V109H182.392ZM183.25 98.9261C182.955 98.9261 182.701 98.8277 182.489 98.6307C182.28 98.4299 182.176 98.1913 182.176 97.9148C182.176 97.6345 182.28 97.3958 182.489 97.1989C182.701 96.9981 182.955 96.8977 183.25 96.8977C183.545 96.8977 183.797 96.9981 184.006 97.1989C184.218 97.3958 184.324 97.6345 184.324 97.9148C184.324 98.1913 184.218 98.4299 184.006 98.6307C183.797 98.8277 183.545 98.9261 183.25 98.9261ZM190.45 100.273V101.636H185.683V100.273H190.45ZM186.962 98.1818H188.661V106.438C188.661 106.767 188.71 107.015 188.808 107.182C188.907 107.345 189.034 107.456 189.189 107.517C189.348 107.574 189.52 107.602 189.706 107.602C189.842 107.602 189.962 107.593 190.064 107.574C190.166 107.555 190.246 107.54 190.303 107.528L190.609 108.932C190.511 108.97 190.371 109.008 190.189 109.045C190.007 109.087 189.78 109.11 189.507 109.114C189.06 109.121 188.643 109.042 188.257 108.875C187.871 108.708 187.558 108.451 187.32 108.102C187.081 107.754 186.962 107.316 186.962 106.79V98.1818ZM193.403 112.273C193.15 112.273 192.919 112.252 192.71 112.21C192.502 112.172 192.347 112.131 192.244 112.085L192.653 110.693C192.964 110.777 193.241 110.813 193.483 110.801C193.725 110.79 193.939 110.699 194.125 110.528C194.314 110.358 194.481 110.08 194.625 109.693L194.835 109.114L191.642 100.273H193.46L195.67 107.045H195.761L197.972 100.273H199.795L196.199 110.165C196.032 110.619 195.82 111.004 195.562 111.318C195.305 111.636 194.998 111.875 194.642 112.034C194.286 112.193 193.873 112.273 193.403 112.273ZM206.534 103.347V104.818H201.375V103.347H206.534ZM212.065 109.17C211.361 109.17 210.732 108.991 210.179 108.631C209.63 108.267 209.198 107.75 208.884 107.08C208.573 106.405 208.418 105.597 208.418 104.653C208.418 103.71 208.575 102.903 208.889 102.233C209.207 101.562 209.643 101.049 210.196 100.693C210.749 100.337 211.376 100.159 212.077 100.159C212.618 100.159 213.054 100.25 213.384 100.432C213.717 100.61 213.974 100.818 214.156 101.057C214.342 101.295 214.486 101.506 214.588 101.688H214.69V97.3636H216.389V109H214.73V107.642H214.588C214.486 107.828 214.338 108.04 214.145 108.278C213.955 108.517 213.694 108.725 213.361 108.903C213.027 109.081 212.596 109.17 212.065 109.17ZM212.44 107.722C212.929 107.722 213.342 107.593 213.679 107.335C214.02 107.074 214.277 106.712 214.452 106.25C214.63 105.788 214.719 105.25 214.719 104.636C214.719 104.03 214.632 103.5 214.457 103.045C214.283 102.591 214.027 102.237 213.69 101.983C213.353 101.729 212.937 101.602 212.44 101.602C211.929 101.602 211.503 101.735 211.162 102C210.821 102.265 210.563 102.627 210.389 103.085C210.219 103.544 210.134 104.061 210.134 104.636C210.134 105.22 210.221 105.744 210.395 106.21C210.569 106.676 210.827 107.045 211.168 107.318C211.512 107.587 211.937 107.722 212.44 107.722ZM218.814 109V100.273H220.456V101.659H220.547C220.706 101.189 220.986 100.82 221.388 100.551C221.793 100.278 222.251 100.142 222.763 100.142C222.869 100.142 222.994 100.146 223.138 100.153C223.286 100.161 223.401 100.17 223.484 100.182V101.807C223.416 101.788 223.295 101.767 223.121 101.744C222.946 101.718 222.772 101.705 222.598 101.705C222.196 101.705 221.839 101.79 221.524 101.96C221.214 102.127 220.967 102.36 220.786 102.659C220.604 102.955 220.513 103.292 220.513 103.67V109H218.814ZM224.955 109V100.273H226.653V109H224.955ZM225.812 98.9261C225.517 98.9261 225.263 98.8277 225.051 98.6307C224.843 98.4299 224.739 98.1913 224.739 97.9148C224.739 97.6345 224.843 97.3958 225.051 97.1989C225.263 96.9981 225.517 96.8977 225.812 96.8977C226.108 96.8977 226.36 96.9981 226.568 97.1989C226.78 97.3958 226.886 97.6345 226.886 97.9148C226.886 98.1913 226.78 98.4299 226.568 98.6307C226.36 98.8277 226.108 98.9261 225.812 98.9261ZM236.405 100.273L233.24 109H231.422L228.251 100.273H230.075L232.286 106.989H232.376L234.581 100.273H236.405ZM241.466 109.176C240.606 109.176 239.866 108.992 239.244 108.625C238.627 108.254 238.15 107.733 237.812 107.062C237.479 106.388 237.312 105.598 237.312 104.693C237.312 103.799 237.479 103.011 237.812 102.33C238.15 101.648 238.619 101.116 239.222 100.733C239.828 100.35 240.536 100.159 241.347 100.159C241.839 100.159 242.316 100.241 242.778 100.403C243.241 100.566 243.655 100.822 244.023 101.17C244.39 101.519 244.68 101.972 244.892 102.528C245.104 103.081 245.21 103.754 245.21 104.545V105.148H238.273V103.875H243.545C243.545 103.428 243.455 103.032 243.273 102.688C243.091 102.339 242.835 102.064 242.506 101.864C242.18 101.663 241.797 101.562 241.358 101.562C240.881 101.562 240.464 101.68 240.108 101.915C239.756 102.146 239.483 102.449 239.29 102.824C239.1 103.195 239.006 103.598 239.006 104.034V105.028C239.006 105.612 239.108 106.108 239.312 106.517C239.521 106.926 239.811 107.239 240.182 107.455C240.553 107.667 240.987 107.773 241.483 107.773C241.805 107.773 242.098 107.727 242.364 107.636C242.629 107.542 242.858 107.402 243.051 107.216C243.244 107.03 243.392 106.801 243.494 106.528L245.102 106.818C244.973 107.292 244.742 107.706 244.409 108.062C244.08 108.415 243.665 108.689 243.165 108.886C242.669 109.08 242.102 109.176 241.466 109.176ZM248.794 103.818V109H247.095V100.273H248.726V101.693H248.834C249.035 101.231 249.349 100.86 249.777 100.58C250.209 100.299 250.752 100.159 251.408 100.159C252.002 100.159 252.523 100.284 252.97 100.534C253.417 100.78 253.764 101.148 254.01 101.636C254.256 102.125 254.379 102.729 254.379 103.449V109H252.68V103.653C252.68 103.021 252.516 102.527 252.186 102.17C251.857 101.811 251.404 101.631 250.828 101.631C250.434 101.631 250.084 101.716 249.777 101.886C249.474 102.057 249.233 102.307 249.055 102.636C248.881 102.962 248.794 103.356 248.794 103.818ZM260.892 112.273V100.273H262.551V101.688H262.693C262.792 101.506 262.934 101.295 263.119 101.057C263.305 100.818 263.563 100.61 263.892 100.432C264.222 100.25 264.657 100.159 265.199 100.159C265.903 100.159 266.532 100.337 267.085 100.693C267.638 101.049 268.072 101.562 268.386 102.233C268.705 102.903 268.864 103.71 268.864 104.653C268.864 105.597 268.706 106.405 268.392 107.08C268.078 107.75 267.646 108.267 267.097 108.631C266.547 108.991 265.92 109.17 265.216 109.17C264.686 109.17 264.252 109.081 263.915 108.903C263.581 108.725 263.32 108.517 263.131 108.278C262.941 108.04 262.795 107.828 262.693 107.642H262.591V112.273H260.892ZM262.557 104.636C262.557 105.25 262.646 105.788 262.824 106.25C263.002 106.712 263.259 107.074 263.597 107.335C263.934 107.593 264.347 107.722 264.835 107.722C265.343 107.722 265.767 107.587 266.108 107.318C266.449 107.045 266.706 106.676 266.881 106.21C267.059 105.744 267.148 105.22 267.148 104.636C267.148 104.061 267.061 103.544 266.886 103.085C266.716 102.627 266.458 102.265 266.114 102C265.773 101.735 265.347 101.602 264.835 101.602C264.343 101.602 263.926 101.729 263.585 101.983C263.248 102.237 262.992 102.591 262.818 103.045C262.644 103.5 262.557 104.03 262.557 104.636ZM270.767 109V100.273H272.409V101.659H272.5C272.659 101.189 272.939 100.82 273.341 100.551C273.746 100.278 274.205 100.142 274.716 100.142C274.822 100.142 274.947 100.146 275.091 100.153C275.239 100.161 275.354 100.17 275.438 100.182V101.807C275.369 101.788 275.248 101.767 275.074 101.744C274.9 101.718 274.725 101.705 274.551 101.705C274.15 101.705 273.792 101.79 273.477 101.96C273.167 102.127 272.92 102.36 272.739 102.659C272.557 102.955 272.466 103.292 272.466 103.67V109H270.767ZM280.271 109.176C279.453 109.176 278.739 108.989 278.129 108.614C277.519 108.239 277.046 107.714 276.709 107.04C276.372 106.366 276.203 105.578 276.203 104.676C276.203 103.771 276.372 102.979 276.709 102.301C277.046 101.623 277.519 101.097 278.129 100.722C278.739 100.347 279.453 100.159 280.271 100.159C281.089 100.159 281.804 100.347 282.413 100.722C283.023 101.097 283.497 101.623 283.834 102.301C284.171 102.979 284.339 103.771 284.339 104.676C284.339 105.578 284.171 106.366 283.834 107.04C283.497 107.714 283.023 108.239 282.413 108.614C281.804 108.989 281.089 109.176 280.271 109.176ZM280.277 107.75C280.807 107.75 281.247 107.61 281.595 107.33C281.944 107.049 282.201 106.676 282.368 106.21C282.538 105.744 282.624 105.231 282.624 104.67C282.624 104.114 282.538 103.602 282.368 103.136C282.201 102.667 281.944 102.29 281.595 102.006C281.247 101.722 280.807 101.58 280.277 101.58C279.743 101.58 279.3 101.722 278.947 102.006C278.599 102.29 278.339 102.667 278.169 103.136C278.002 103.602 277.919 104.114 277.919 104.67C277.919 105.231 278.002 105.744 278.169 106.21C278.339 106.676 278.599 107.049 278.947 107.33C279.3 107.61 279.743 107.75 280.277 107.75ZM286.236 100.273H287.935V109.568C287.935 110.152 287.829 110.644 287.616 111.045C287.408 111.447 287.098 111.752 286.685 111.96C286.276 112.169 285.77 112.273 285.168 112.273C285.107 112.273 285.05 112.273 284.997 112.273C284.94 112.273 284.882 112.271 284.821 112.267V110.807C284.874 110.807 284.921 110.807 284.963 110.807C285.001 110.807 285.045 110.807 285.094 110.807C285.495 110.807 285.785 110.699 285.963 110.483C286.145 110.271 286.236 109.962 286.236 109.557V100.273ZM287.077 98.9261C286.781 98.9261 286.527 98.8277 286.315 98.6307C286.107 98.4299 286.003 98.1913 286.003 97.9148C286.003 97.6345 286.107 97.3958 286.315 97.1989C286.527 96.9981 286.781 96.8977 287.077 96.8977C287.372 96.8977 287.624 96.9981 287.832 97.1989C288.045 97.3958 288.151 97.6345 288.151 97.9148C288.151 98.1913 288.045 98.4299 287.832 98.6307C287.624 98.8277 287.372 98.9261 287.077 98.9261ZM293.982 109.176C293.122 109.176 292.381 108.992 291.76 108.625C291.143 108.254 290.665 107.733 290.328 107.062C289.995 106.388 289.828 105.598 289.828 104.693C289.828 103.799 289.995 103.011 290.328 102.33C290.665 101.648 291.135 101.116 291.737 100.733C292.343 100.35 293.052 100.159 293.862 100.159C294.355 100.159 294.832 100.241 295.294 100.403C295.756 100.566 296.171 100.822 296.538 101.17C296.906 101.519 297.196 101.972 297.408 102.528C297.62 103.081 297.726 103.754 297.726 104.545V105.148H290.788V103.875H296.061C296.061 103.428 295.97 103.032 295.788 102.688C295.607 102.339 295.351 102.064 295.021 101.864C294.696 101.663 294.313 101.562 293.874 101.562C293.396 101.562 292.98 101.68 292.624 101.915C292.271 102.146 291.999 102.449 291.805 102.824C291.616 103.195 291.521 103.598 291.521 104.034V105.028C291.521 105.612 291.624 106.108 291.828 106.517C292.036 106.926 292.326 107.239 292.697 107.455C293.069 107.667 293.502 107.773 293.999 107.773C294.321 107.773 294.614 107.727 294.879 107.636C295.144 107.542 295.374 107.402 295.567 107.216C295.76 107.03 295.908 106.801 296.01 106.528L297.618 106.818C297.489 107.292 297.258 107.706 296.925 108.062C296.595 108.415 296.18 108.689 295.68 108.886C295.184 109.08 294.618 109.176 293.982 109.176ZM303.287 109.176C302.442 109.176 301.715 108.985 301.105 108.602C300.499 108.216 300.033 107.684 299.707 107.006C299.382 106.328 299.219 105.551 299.219 104.676C299.219 103.79 299.385 103.008 299.719 102.33C300.052 101.648 300.522 101.116 301.128 100.733C301.734 100.35 302.448 100.159 303.27 100.159C303.933 100.159 304.524 100.282 305.043 100.528C305.562 100.771 305.98 101.112 306.298 101.551C306.62 101.991 306.812 102.504 306.872 103.091H305.219C305.128 102.682 304.92 102.33 304.594 102.034C304.272 101.739 303.84 101.591 303.298 101.591C302.825 101.591 302.41 101.716 302.054 101.966C301.702 102.212 301.427 102.564 301.23 103.023C301.033 103.477 300.935 104.015 300.935 104.636C300.935 105.273 301.031 105.822 301.224 106.284C301.418 106.746 301.69 107.104 302.043 107.358C302.399 107.612 302.817 107.739 303.298 107.739C303.62 107.739 303.912 107.68 304.173 107.562C304.438 107.441 304.66 107.269 304.838 107.045C305.02 106.822 305.147 106.553 305.219 106.239H306.872C306.812 106.803 306.628 107.307 306.321 107.75C306.014 108.193 305.603 108.542 305.088 108.795C304.577 109.049 303.976 109.176 303.287 109.176ZM312.763 100.273V101.636H307.996V100.273H312.763ZM309.274 98.1818H310.973V106.438C310.973 106.767 311.022 107.015 311.121 107.182C311.219 107.345 311.346 107.456 311.501 107.517C311.661 107.574 311.833 107.602 312.018 107.602C312.155 107.602 312.274 107.593 312.376 107.574C312.479 107.555 312.558 107.54 312.615 107.528L312.922 108.932C312.823 108.97 312.683 109.008 312.501 109.045C312.32 109.087 312.092 109.11 311.82 109.114C311.373 109.121 310.956 109.042 310.57 108.875C310.183 108.708 309.871 108.451 309.632 108.102C309.393 107.754 309.274 107.316 309.274 106.79V98.1818ZM321.041 102.403L319.501 102.676C319.437 102.479 319.335 102.292 319.195 102.114C319.058 101.936 318.873 101.79 318.638 101.676C318.403 101.562 318.109 101.506 317.757 101.506C317.276 101.506 316.875 101.614 316.553 101.83C316.231 102.042 316.07 102.316 316.07 102.653C316.07 102.945 316.178 103.18 316.393 103.358C316.609 103.536 316.958 103.682 317.439 103.795L318.825 104.114C319.628 104.299 320.227 104.585 320.621 104.972C321.015 105.358 321.212 105.86 321.212 106.477C321.212 107 321.06 107.466 320.757 107.875C320.458 108.28 320.039 108.598 319.501 108.83C318.967 109.061 318.348 109.176 317.643 109.176C316.666 109.176 315.869 108.968 315.251 108.551C314.634 108.131 314.255 107.534 314.115 106.761L315.757 106.511C315.859 106.939 316.07 107.263 316.388 107.483C316.706 107.699 317.121 107.807 317.632 107.807C318.189 107.807 318.634 107.691 318.967 107.46C319.301 107.225 319.467 106.939 319.467 106.602C319.467 106.33 319.365 106.1 319.161 105.915C318.96 105.729 318.651 105.589 318.234 105.494L316.757 105.17C315.943 104.985 315.34 104.689 314.95 104.284C314.564 103.879 314.371 103.366 314.371 102.744C314.371 102.229 314.515 101.778 314.803 101.392C315.09 101.006 315.488 100.705 315.996 100.489C316.503 100.269 317.085 100.159 317.74 100.159C318.683 100.159 319.426 100.364 319.967 100.773C320.509 101.178 320.867 101.722 321.041 102.403ZM34.9034 128.176C34.0436 128.176 33.303 127.992 32.6818 127.625C32.0644 127.254 31.5871 126.733 31.25 126.062C30.9167 125.388 30.75 124.598 30.75 123.693C30.75 122.799 30.9167 122.011 31.25 121.33C31.5871 120.648 32.0568 120.116 32.6591 119.733C33.2652 119.35 33.9735 119.159 34.7841 119.159C35.2765 119.159 35.7538 119.241 36.2159 119.403C36.678 119.566 37.0928 119.822 37.4602 120.17C37.8277 120.519 38.1174 120.972 38.3295 121.528C38.5417 122.081 38.6477 122.754 38.6477 123.545V124.148H31.7102V122.875H36.983C36.983 122.428 36.892 122.032 36.7102 121.688C36.5284 121.339 36.2727 121.064 35.9432 120.864C35.6174 120.663 35.2348 120.562 34.7955 120.562C34.3182 120.562 33.9015 120.68 33.5455 120.915C33.1932 121.146 32.9205 121.449 32.7273 121.824C32.5379 122.195 32.4432 122.598 32.4432 123.034V124.028C32.4432 124.612 32.5455 125.108 32.75 125.517C32.9583 125.926 33.2481 126.239 33.6193 126.455C33.9905 126.667 34.4242 126.773 34.9205 126.773C35.2424 126.773 35.536 126.727 35.8011 126.636C36.0663 126.542 36.2955 126.402 36.4886 126.216C36.6818 126.03 36.8295 125.801 36.9318 125.528L38.5398 125.818C38.411 126.292 38.1799 126.706 37.8466 127.062C37.517 127.415 37.1023 127.689 36.6023 127.886C36.1061 128.08 35.5398 128.176 34.9034 128.176ZM41.6705 119.273L43.5966 122.67L45.5398 119.273H47.3977L44.6761 123.636L47.4205 128H45.5625L43.5966 124.739L41.6364 128H39.7727L42.4886 123.636L39.8068 119.273H41.6705ZM52.5597 128.176C51.6998 128.176 50.9593 127.992 50.3381 127.625C49.7206 127.254 49.2434 126.733 48.9062 126.062C48.5729 125.388 48.4062 124.598 48.4062 123.693C48.4062 122.799 48.5729 122.011 48.9062 121.33C49.2434 120.648 49.7131 120.116 50.3153 119.733C50.9214 119.35 51.6297 119.159 52.4403 119.159C52.9328 119.159 53.41 119.241 53.8722 119.403C54.3343 119.566 54.7491 119.822 55.1165 120.17C55.4839 120.519 55.7737 120.972 55.9858 121.528C56.1979 122.081 56.304 122.754 56.304 123.545V124.148H49.3665V122.875H54.6392C54.6392 122.428 54.5483 122.032 54.3665 121.688C54.1847 121.339 53.929 121.064 53.5994 120.864C53.2737 120.663 52.8911 120.562 52.4517 120.562C51.9744 120.562 51.5578 120.68 51.2017 120.915C50.8494 121.146 50.5767 121.449 50.3835 121.824C50.1941 122.195 50.0994 122.598 50.0994 123.034V124.028C50.0994 124.612 50.2017 125.108 50.4062 125.517C50.6146 125.926 50.9044 126.239 51.2756 126.455C51.6468 126.667 52.0805 126.773 52.5767 126.773C52.8987 126.773 53.1922 126.727 53.4574 126.636C53.7225 126.542 53.9517 126.402 54.1449 126.216C54.3381 126.03 54.4858 125.801 54.5881 125.528L56.196 125.818C56.0672 126.292 55.8362 126.706 55.5028 127.062C55.1733 127.415 54.7585 127.689 54.2585 127.886C53.7623 128.08 53.196 128.176 52.5597 128.176ZM61.8651 128.176C61.0204 128.176 60.2931 127.985 59.6832 127.602C59.0772 127.216 58.6113 126.684 58.2855 126.006C57.9598 125.328 57.7969 124.551 57.7969 123.676C57.7969 122.79 57.9635 122.008 58.2969 121.33C58.6302 120.648 59.0999 120.116 59.706 119.733C60.312 119.35 61.026 119.159 61.848 119.159C62.5109 119.159 63.1018 119.282 63.6207 119.528C64.1397 119.771 64.5582 120.112 64.8764 120.551C65.1984 120.991 65.3897 121.504 65.4503 122.091H63.7969C63.706 121.682 63.4976 121.33 63.1719 121.034C62.8499 120.739 62.4181 120.591 61.8764 120.591C61.4029 120.591 60.9882 120.716 60.6321 120.966C60.2798 121.212 60.0052 121.564 59.8082 122.023C59.6113 122.477 59.5128 123.015 59.5128 123.636C59.5128 124.273 59.6094 124.822 59.8026 125.284C59.9957 125.746 60.2685 126.104 60.6207 126.358C60.9768 126.612 61.3954 126.739 61.8764 126.739C62.1984 126.739 62.4901 126.68 62.7514 126.562C63.0166 126.441 63.2382 126.269 63.4162 126.045C63.598 125.822 63.7249 125.553 63.7969 125.239H65.4503C65.3897 125.803 65.206 126.307 64.8991 126.75C64.5923 127.193 64.1813 127.542 63.6662 127.795C63.1548 128.049 62.5545 128.176 61.8651 128.176ZM72.7955 124.381V119.273H74.5V128H72.8295V126.489H72.7386C72.5379 126.955 72.2159 127.343 71.7727 127.653C71.3333 127.96 70.786 128.114 70.1307 128.114C69.5701 128.114 69.0739 127.991 68.642 127.744C68.214 127.494 67.8769 127.125 67.6307 126.636C67.3883 126.148 67.267 125.544 67.267 124.824V119.273H68.9659V124.619C68.9659 125.214 69.1307 125.687 69.4602 126.04C69.7898 126.392 70.2178 126.568 70.7443 126.568C71.0625 126.568 71.3788 126.489 71.6932 126.33C72.0114 126.17 72.2746 125.93 72.483 125.608C72.6951 125.286 72.7992 124.877 72.7955 124.381ZM80.8565 119.273V120.636H76.0895V119.273H80.8565ZM77.3679 117.182H79.0668V125.438C79.0668 125.767 79.116 126.015 79.2145 126.182C79.313 126.345 79.4399 126.456 79.5952 126.517C79.7543 126.574 79.9266 126.602 80.1122 126.602C80.2486 126.602 80.3679 126.593 80.4702 126.574C80.5724 126.555 80.652 126.54 80.7088 126.528L81.0156 127.932C80.9171 127.97 80.777 128.008 80.5952 128.045C80.4134 128.087 80.1861 128.11 79.9134 128.114C79.4664 128.121 79.0497 128.042 78.6634 127.875C78.277 127.708 77.9645 127.451 77.7259 127.102C77.4872 126.754 77.3679 126.316 77.3679 125.79V117.182ZM86.4034 128.176C85.5436 128.176 84.803 127.992 84.1818 127.625C83.5644 127.254 83.0871 126.733 82.75 126.062C82.4167 125.388 82.25 124.598 82.25 123.693C82.25 122.799 82.4167 122.011 82.75 121.33C83.0871 120.648 83.5568 120.116 84.1591 119.733C84.7652 119.35 85.4735 119.159 86.2841 119.159C86.7765 119.159 87.2538 119.241 87.7159 119.403C88.178 119.566 88.5928 119.822 88.9602 120.17C89.3277 120.519 89.6174 120.972 89.8295 121.528C90.0417 122.081 90.1477 122.754 90.1477 123.545V124.148H83.2102V122.875H88.483C88.483 122.428 88.392 122.032 88.2102 121.688C88.0284 121.339 87.7727 121.064 87.4432 120.864C87.1174 120.663 86.7348 120.562 86.2955 120.562C85.8182 120.562 85.4015 120.68 85.0455 120.915C84.6932 121.146 84.4205 121.449 84.2273 121.824C84.0379 122.195 83.9432 122.598 83.9432 123.034V124.028C83.9432 124.612 84.0455 125.108 84.25 125.517C84.4583 125.926 84.7481 126.239 85.1193 126.455C85.4905 126.667 85.9242 126.773 86.4205 126.773C86.7424 126.773 87.036 126.727 87.3011 126.636C87.5663 126.542 87.7955 126.402 87.9886 126.216C88.1818 126.03 88.3295 125.801 88.4318 125.528L90.0398 125.818C89.911 126.292 89.6799 126.706 89.3466 127.062C89.017 127.415 88.6023 127.689 88.1023 127.886C87.6061 128.08 87.0398 128.176 86.4034 128.176ZM95.2997 128.17C94.5952 128.17 93.9664 127.991 93.4134 127.631C92.8641 127.267 92.4323 126.75 92.1179 126.08C91.8073 125.405 91.652 124.597 91.652 123.653C91.652 122.71 91.8092 121.903 92.1236 121.233C92.4418 120.562 92.8774 120.049 93.4304 119.693C93.9834 119.337 94.6103 119.159 95.3111 119.159C95.8527 119.159 96.2884 119.25 96.6179 119.432C96.9512 119.61 97.2088 119.818 97.3906 120.057C97.5762 120.295 97.7202 120.506 97.8224 120.688H97.9247V116.364H99.6236V128H97.9645V126.642H97.8224C97.7202 126.828 97.5724 127.04 97.3793 127.278C97.1899 127.517 96.9285 127.725 96.5952 127.903C96.2618 128.081 95.83 128.17 95.2997 128.17ZM95.6747 126.722C96.1634 126.722 96.5762 126.593 96.9134 126.335C97.2543 126.074 97.5118 125.712 97.6861 125.25C97.8641 124.788 97.9531 124.25 97.9531 123.636C97.9531 123.03 97.866 122.5 97.6918 122.045C97.5175 121.591 97.2618 121.237 96.9247 120.983C96.5876 120.729 96.1709 120.602 95.6747 120.602C95.1634 120.602 94.7372 120.735 94.3963 121C94.0554 121.265 93.7978 121.627 93.6236 122.085C93.4531 122.544 93.3679 123.061 93.3679 123.636C93.3679 124.22 93.455 124.744 93.6293 125.21C93.8035 125.676 94.0611 126.045 94.402 126.318C94.7467 126.587 95.1709 126.722 95.6747 126.722ZM112.822 121.403L111.283 121.676C111.218 121.479 111.116 121.292 110.976 121.114C110.839 120.936 110.654 120.79 110.419 120.676C110.184 120.562 109.891 120.506 109.538 120.506C109.057 120.506 108.656 120.614 108.334 120.83C108.012 121.042 107.851 121.316 107.851 121.653C107.851 121.945 107.959 122.18 108.175 122.358C108.391 122.536 108.739 122.682 109.22 122.795L110.607 123.114C111.41 123.299 112.008 123.585 112.402 123.972C112.796 124.358 112.993 124.86 112.993 125.477C112.993 126 112.841 126.466 112.538 126.875C112.239 127.28 111.821 127.598 111.283 127.83C110.749 128.061 110.129 128.176 109.425 128.176C108.447 128.176 107.65 127.968 107.033 127.551C106.415 127.131 106.036 126.534 105.896 125.761L107.538 125.511C107.641 125.939 107.851 126.263 108.169 126.483C108.487 126.699 108.902 126.807 109.413 126.807C109.97 126.807 110.415 126.691 110.749 126.46C111.082 126.225 111.249 125.939 111.249 125.602C111.249 125.33 111.146 125.1 110.942 124.915C110.741 124.729 110.432 124.589 110.016 124.494L108.538 124.17C107.724 123.985 107.122 123.689 106.732 123.284C106.345 122.879 106.152 122.366 106.152 121.744C106.152 121.229 106.296 120.778 106.584 120.392C106.872 120.006 107.269 119.705 107.777 119.489C108.285 119.269 108.866 119.159 109.521 119.159C110.464 119.159 111.207 119.364 111.749 119.773C112.29 120.178 112.648 120.722 112.822 121.403ZM120.389 124.381V119.273H122.094V128H120.423V126.489H120.332C120.132 126.955 119.81 127.343 119.366 127.653C118.927 127.96 118.38 128.114 117.724 128.114C117.164 128.114 116.668 127.991 116.236 127.744C115.808 127.494 115.471 127.125 115.224 126.636C114.982 126.148 114.861 125.544 114.861 124.824V119.273H116.56V124.619C116.56 125.214 116.724 125.687 117.054 126.04C117.384 126.392 117.812 126.568 118.338 126.568C118.656 126.568 118.973 126.489 119.287 126.33C119.605 126.17 119.868 125.93 120.077 125.608C120.289 125.286 120.393 124.877 120.389 124.381ZM128.053 128.176C127.208 128.176 126.481 127.985 125.871 127.602C125.265 127.216 124.799 126.684 124.473 126.006C124.147 125.328 123.984 124.551 123.984 123.676C123.984 122.79 124.151 122.008 124.484 121.33C124.818 120.648 125.287 120.116 125.893 119.733C126.5 119.35 127.214 119.159 128.036 119.159C128.698 119.159 129.289 119.282 129.808 119.528C130.327 119.771 130.746 120.112 131.064 120.551C131.386 120.991 131.577 121.504 131.638 122.091H129.984C129.893 121.682 129.685 121.33 129.359 121.034C129.037 120.739 128.606 120.591 128.064 120.591C127.59 120.591 127.176 120.716 126.82 120.966C126.467 121.212 126.193 121.564 125.996 122.023C125.799 122.477 125.7 123.015 125.7 123.636C125.7 124.273 125.797 124.822 125.99 125.284C126.183 125.746 126.456 126.104 126.808 126.358C127.164 126.612 127.583 126.739 128.064 126.739C128.386 126.739 128.678 126.68 128.939 126.562C129.204 126.441 129.426 126.269 129.604 126.045C129.786 125.822 129.912 125.553 129.984 125.239H131.638C131.577 125.803 131.393 126.307 131.087 126.75C130.78 127.193 130.369 127.542 129.854 127.795C129.342 128.049 128.742 128.176 128.053 128.176ZM137.131 128.176C136.286 128.176 135.559 127.985 134.949 127.602C134.343 127.216 133.877 126.684 133.551 126.006C133.225 125.328 133.062 124.551 133.062 123.676C133.062 122.79 133.229 122.008 133.562 121.33C133.896 120.648 134.366 120.116 134.972 119.733C135.578 119.35 136.292 119.159 137.114 119.159C137.777 119.159 138.367 119.282 138.886 119.528C139.405 119.771 139.824 120.112 140.142 120.551C140.464 120.991 140.655 121.504 140.716 122.091H139.062C138.972 121.682 138.763 121.33 138.438 121.034C138.116 120.739 137.684 120.591 137.142 120.591C136.669 120.591 136.254 120.716 135.898 120.966C135.545 121.212 135.271 121.564 135.074 122.023C134.877 122.477 134.778 123.015 134.778 123.636C134.778 124.273 134.875 124.822 135.068 125.284C135.261 125.746 135.534 126.104 135.886 126.358C136.242 126.612 136.661 126.739 137.142 126.739C137.464 126.739 137.756 126.68 138.017 126.562C138.282 126.441 138.504 126.269 138.682 126.045C138.864 125.822 138.991 125.553 139.062 125.239H140.716C140.655 125.803 140.472 126.307 140.165 126.75C139.858 127.193 139.447 127.542 138.932 127.795C138.42 128.049 137.82 128.176 137.131 128.176ZM146.294 128.176C145.434 128.176 144.694 127.992 144.072 127.625C143.455 127.254 142.978 126.733 142.641 126.062C142.307 125.388 142.141 124.598 142.141 123.693C142.141 122.799 142.307 122.011 142.641 121.33C142.978 120.648 143.447 120.116 144.05 119.733C144.656 119.35 145.364 119.159 146.175 119.159C146.667 119.159 147.144 119.241 147.607 119.403C148.069 119.566 148.483 119.822 148.851 120.17C149.218 120.519 149.508 120.972 149.72 121.528C149.932 122.081 150.038 122.754 150.038 123.545V124.148H143.101V122.875H148.374C148.374 122.428 148.283 122.032 148.101 121.688C147.919 121.339 147.663 121.064 147.334 120.864C147.008 120.663 146.625 120.562 146.186 120.562C145.709 120.562 145.292 120.68 144.936 120.915C144.584 121.146 144.311 121.449 144.118 121.824C143.929 122.195 143.834 122.598 143.834 123.034V124.028C143.834 124.612 143.936 125.108 144.141 125.517C144.349 125.926 144.639 126.239 145.01 126.455C145.381 126.667 145.815 126.773 146.311 126.773C146.633 126.773 146.927 126.727 147.192 126.636C147.457 126.542 147.686 126.402 147.879 126.216C148.072 126.03 148.22 125.801 148.322 125.528L149.93 125.818C149.802 126.292 149.571 126.706 149.237 127.062C148.908 127.415 148.493 127.689 147.993 127.886C147.497 128.08 146.93 128.176 146.294 128.176ZM158.463 121.403L156.923 121.676C156.859 121.479 156.757 121.292 156.616 121.114C156.48 120.936 156.295 120.79 156.06 120.676C155.825 120.562 155.531 120.506 155.179 120.506C154.698 120.506 154.296 120.614 153.974 120.83C153.652 121.042 153.491 121.316 153.491 121.653C153.491 121.945 153.599 122.18 153.815 122.358C154.031 122.536 154.38 122.682 154.861 122.795L156.247 123.114C157.05 123.299 157.649 123.585 158.043 123.972C158.437 124.358 158.634 124.86 158.634 125.477C158.634 126 158.482 126.466 158.179 126.875C157.88 127.28 157.461 127.598 156.923 127.83C156.389 128.061 155.77 128.176 155.065 128.176C154.088 128.176 153.291 127.968 152.673 127.551C152.056 127.131 151.677 126.534 151.537 125.761L153.179 125.511C153.281 125.939 153.491 126.263 153.81 126.483C154.128 126.699 154.543 126.807 155.054 126.807C155.611 126.807 156.056 126.691 156.389 126.46C156.723 126.225 156.889 125.939 156.889 125.602C156.889 125.33 156.787 125.1 156.582 124.915C156.382 124.729 156.073 124.589 155.656 124.494L154.179 124.17C153.365 123.985 152.762 123.689 152.372 123.284C151.986 122.879 151.793 122.366 151.793 121.744C151.793 121.229 151.937 120.778 152.224 120.392C152.512 120.006 152.91 119.705 153.418 119.489C153.925 119.269 154.507 119.159 155.162 119.159C156.105 119.159 156.848 119.364 157.389 119.773C157.931 120.178 158.289 120.722 158.463 121.403ZM167.041 121.403L165.501 121.676C165.437 121.479 165.335 121.292 165.195 121.114C165.058 120.936 164.873 120.79 164.638 120.676C164.403 120.562 164.109 120.506 163.757 120.506C163.276 120.506 162.875 120.614 162.553 120.83C162.231 121.042 162.07 121.316 162.07 121.653C162.07 121.945 162.178 122.18 162.393 122.358C162.609 122.536 162.958 122.682 163.439 122.795L164.825 123.114C165.628 123.299 166.227 123.585 166.621 123.972C167.015 124.358 167.212 124.86 167.212 125.477C167.212 126 167.06 126.466 166.757 126.875C166.458 127.28 166.039 127.598 165.501 127.83C164.967 128.061 164.348 128.176 163.643 128.176C162.666 128.176 161.869 127.968 161.251 127.551C160.634 127.131 160.255 126.534 160.115 125.761L161.757 125.511C161.859 125.939 162.07 126.263 162.388 126.483C162.706 126.699 163.121 126.807 163.632 126.807C164.189 126.807 164.634 126.691 164.967 126.46C165.301 126.225 165.467 125.939 165.467 125.602C165.467 125.33 165.365 125.1 165.161 124.915C164.96 124.729 164.651 124.589 164.234 124.494L162.757 124.17C161.943 123.985 161.34 123.689 160.95 123.284C160.564 122.879 160.371 122.366 160.371 121.744C160.371 121.229 160.515 120.778 160.803 120.392C161.09 120.006 161.488 119.705 161.996 119.489C162.503 119.269 163.085 119.159 163.74 119.159C164.683 119.159 165.426 119.364 165.967 119.773C166.509 120.178 166.867 120.722 167.041 121.403ZM173.233 119.273V120.636H168.301V119.273H173.233ZM169.653 128V118.261C169.653 117.716 169.773 117.263 170.011 116.903C170.25 116.54 170.566 116.269 170.96 116.091C171.354 115.909 171.782 115.818 172.244 115.818C172.585 115.818 172.877 115.847 173.119 115.903C173.362 115.956 173.542 116.006 173.659 116.051L173.261 117.426C173.182 117.403 173.08 117.377 172.955 117.347C172.83 117.312 172.678 117.295 172.5 117.295C172.087 117.295 171.792 117.398 171.614 117.602C171.439 117.807 171.352 118.102 171.352 118.489V128H169.653ZM180.514 124.381V119.273H182.219V128H180.548V126.489H180.457C180.257 126.955 179.935 127.343 179.491 127.653C179.052 127.96 178.505 128.114 177.849 128.114C177.289 128.114 176.793 127.991 176.361 127.744C175.933 127.494 175.596 127.125 175.349 126.636C175.107 126.148 174.986 125.544 174.986 124.824V119.273H176.685V124.619C176.685 125.214 176.849 125.687 177.179 126.04C177.509 126.392 177.937 126.568 178.463 126.568C178.781 126.568 179.098 126.489 179.412 126.33C179.73 126.17 179.993 125.93 180.202 125.608C180.414 125.286 180.518 124.877 180.514 124.381ZM186.2 116.364V128H184.501V116.364H186.2ZM190.185 116.364V128H188.486V116.364H190.185ZM193.544 131.273C193.29 131.273 193.059 131.252 192.851 131.21C192.643 131.172 192.487 131.131 192.385 131.085L192.794 129.693C193.105 129.777 193.381 129.813 193.624 129.801C193.866 129.79 194.08 129.699 194.266 129.528C194.455 129.358 194.622 129.08 194.766 128.693L194.976 128.114L191.783 119.273H193.601L195.811 126.045H195.902L198.112 119.273H199.936L196.339 129.165C196.173 129.619 195.961 130.004 195.703 130.318C195.446 130.636 195.139 130.875 194.783 131.034C194.427 131.193 194.014 131.273 193.544 131.273ZM202.105 128.108C201.795 128.108 201.527 127.998 201.304 127.778C201.08 127.555 200.969 127.286 200.969 126.972C200.969 126.661 201.08 126.396 201.304 126.176C201.527 125.953 201.795 125.841 202.105 125.841C202.416 125.841 202.683 125.953 202.906 126.176C203.13 126.396 203.241 126.661 203.241 126.972C203.241 127.18 203.188 127.371 203.082 127.545C202.98 127.716 202.844 127.852 202.673 127.955C202.503 128.057 202.313 128.108 202.105 128.108Z" fill="white"/>
<path d="M321.75 7.41667V-0.416667C321.75 -4.725 325.275 -8.25 329.583 -8.25H337.417M376.583 -8.25H384.417C388.725 -8.25 392.25 -4.725 392.25 -0.416667V7.41667M392.25 46.5833V54.4167C392.25 58.725 388.725 62.25 384.417 62.25H376.583M337.417 62.25H329.583C325.275 62.25 321.75 58.725 321.75 54.4167V46.5833" stroke="white" stroke-opacity="0.1" stroke-width="2" stroke-linecap="round" stroke-linejoin="round"/>
<path d="M360.917 7.41667H341.333C339.17 7.41667 337.417 9.17022 337.417 11.3333V23.0833C337.417 25.2464 339.17 27 341.333 27H360.917C363.08 27 364.833 25.2464 364.833 23.0833V11.3333C364.833 9.17022 363.08 7.41667 360.917 7.41667Z" stroke="white" stroke-opacity="0.1" stroke-width="2" stroke-linecap="round" stroke-linejoin="round"/>
<path d="M372.667 27H353.083C350.92 27 349.167 28.7536 349.167 30.9167V42.6667C349.167 44.8298 350.92 46.5833 353.083 46.5833H372.667C374.83 46.5833 376.583 44.8298 376.583 42.6667V30.9167C376.583 28.7536 374.83 27 372.667 27Z" stroke="white" stroke-opacity="0.1" stroke-width="2" stroke-linecap="round" stroke-linejoin="round"/>
</g>
<path d="M0.5 0.5H347C368.815 0.5 386.5 18.1848 386.5 40V151.5H40C18.1847 151.5 0.5 133.815 0.5 112V0.5Z" stroke="white" stroke-opacity="0.1"/>
<defs>
<clipPath id="clip0_167_1096">
<path d="M0 0H347C369.091 0 387 17.9086 387 40V152H40C17.9086 152 0 134.091 0 112V0Z" fill="white"/>
</clipPath>
</defs>
</svg>
