<svg width="387" height="152" viewBox="0 0 387 152" fill="none" xmlns="http://www.w3.org/2000/svg">
<g clip-path="url(#clip0_167_1102)">
<path d="M0 0H347C369.091 0 387 17.9086 387 40V152H40C17.9086 152 0 134.091 0 112V0Z" fill="white" fill-opacity="0.12"/>
<path d="M48.017 31.0909V66H40.6364V38.0966H40.4318L32.4375 43.108V36.5625L41.0795 31.0909H48.017ZM71.5014 31.0909V66H64.1207V38.0966H63.9162L55.9219 43.108V36.5625L64.5639 31.0909H71.5014ZM93.4858 66.767C90.554 66.7557 88.0313 66.0341 85.9176 64.6023C83.8153 63.1705 82.196 61.0966 81.0597 58.3807C79.9347 55.6648 79.3778 52.3977 79.3892 48.5795C79.3892 44.7727 79.9517 41.5284 81.0767 38.8466C82.2131 36.1648 83.8324 34.125 85.9347 32.7273C88.0483 31.3182 90.5653 30.6136 93.4858 30.6136C96.4063 30.6136 98.9176 31.3182 101.02 32.7273C103.134 34.1364 104.759 36.1818 105.895 38.8636C107.031 41.5341 107.594 44.7727 107.582 48.5795C107.582 52.4091 107.014 55.6818 105.878 58.3977C104.753 61.1136 103.139 63.1875 101.037 64.6193C98.9347 66.0511 96.4176 66.767 93.4858 66.767ZM93.4858 60.6477C95.4858 60.6477 97.0824 59.642 98.2756 57.6307C99.4688 55.6193 100.06 52.6023 100.048 48.5795C100.048 45.9318 99.7756 43.7273 99.2301 41.9659C98.696 40.2045 97.9347 38.8807 96.946 37.9943C95.9688 37.108 94.8153 36.6648 93.4858 36.6648C91.4972 36.6648 89.9063 37.6591 88.7131 39.6477C87.5199 41.6364 86.9176 44.6136 86.9062 48.5795C86.9062 51.2614 87.1733 53.5 87.7074 55.2955C88.2528 57.0795 89.0199 58.4205 90.0085 59.3182C90.9972 60.2045 92.1562 60.6477 93.4858 60.6477ZM126.533 66.767C123.601 66.7557 121.078 66.0341 118.964 64.6023C116.862 63.1705 115.243 61.0966 114.107 58.3807C112.982 55.6648 112.425 52.3977 112.436 48.5795C112.436 44.7727 112.999 41.5284 114.124 38.8466C115.26 36.1648 116.879 34.125 118.982 32.7273C121.095 31.3182 123.612 30.6136 126.533 30.6136C129.453 30.6136 131.964 31.3182 134.067 32.7273C136.18 34.1364 137.805 36.1818 138.942 38.8636C140.078 41.5341 140.641 44.7727 140.629 48.5795C140.629 52.4091 140.061 55.6818 138.925 58.3977C137.8 61.1136 136.186 63.1875 134.084 64.6193C131.982 66.0511 129.464 66.767 126.533 66.767ZM126.533 60.6477C128.533 60.6477 130.129 59.642 131.322 57.6307C132.516 55.6193 133.107 52.6023 133.095 48.5795C133.095 45.9318 132.822 43.7273 132.277 41.9659C131.743 40.2045 130.982 38.8807 129.993 37.9943C129.016 37.108 127.862 36.6648 126.533 36.6648C124.544 36.6648 122.953 37.6591 121.76 39.6477C120.567 41.6364 119.964 44.6136 119.953 48.5795C119.953 51.2614 120.22 53.5 120.754 55.2955C121.3 57.0795 122.067 58.4205 123.055 59.3182C124.044 60.2045 125.203 60.6477 126.533 60.6477Z" fill="white"/>
<path d="M31.2784 109V97.3636H35.4261C36.3314 97.3636 37.0814 97.5284 37.6761 97.858C38.2708 98.1875 38.7159 98.6383 39.0114 99.2102C39.3068 99.7784 39.4545 100.419 39.4545 101.131C39.4545 101.847 39.3049 102.491 39.0057 103.062C38.7102 103.631 38.2633 104.081 37.6648 104.415C37.0701 104.744 36.322 104.909 35.4205 104.909H32.5682V103.42H35.2614C35.8333 103.42 36.2973 103.322 36.6534 103.125C37.0095 102.924 37.2708 102.652 37.4375 102.307C37.6042 101.962 37.6875 101.57 37.6875 101.131C37.6875 100.691 37.6042 100.301 37.4375 99.9602C37.2708 99.6193 37.0076 99.3523 36.6477 99.1591C36.2917 98.9659 35.822 98.8693 35.2386 98.8693H33.0341V109H31.2784ZM41.3764 109V100.273H43.0185V101.659H43.1094C43.2685 101.189 43.5488 100.82 43.9503 100.551C44.3556 100.278 44.8139 100.142 45.3253 100.142C45.4313 100.142 45.5563 100.146 45.7003 100.153C45.848 100.161 45.9635 100.17 46.0469 100.182V101.807C45.9787 101.788 45.8575 101.767 45.6832 101.744C45.509 101.718 45.3348 101.705 45.1605 101.705C44.759 101.705 44.401 101.79 44.0866 101.96C43.776 102.127 43.5298 102.36 43.348 102.659C43.1662 102.955 43.0753 103.292 43.0753 103.67V109H41.3764ZM50.8807 109.176C50.0625 109.176 49.3485 108.989 48.7386 108.614C48.1288 108.239 47.6553 107.714 47.3182 107.04C46.9811 106.366 46.8125 105.578 46.8125 104.676C46.8125 103.771 46.9811 102.979 47.3182 102.301C47.6553 101.623 48.1288 101.097 48.7386 100.722C49.3485 100.347 50.0625 100.159 50.8807 100.159C51.6989 100.159 52.4129 100.347 53.0227 100.722C53.6326 101.097 54.1061 101.623 54.4432 102.301C54.7803 102.979 54.9489 103.771 54.9489 104.676C54.9489 105.578 54.7803 106.366 54.4432 107.04C54.1061 107.714 53.6326 108.239 53.0227 108.614C52.4129 108.989 51.6989 109.176 50.8807 109.176ZM50.8864 107.75C51.4167 107.75 51.8561 107.61 52.2045 107.33C52.553 107.049 52.8106 106.676 52.9773 106.21C53.1477 105.744 53.233 105.231 53.233 104.67C53.233 104.114 53.1477 103.602 52.9773 103.136C52.8106 102.667 52.553 102.29 52.2045 102.006C51.8561 101.722 51.4167 101.58 50.8864 101.58C50.3523 101.58 49.9091 101.722 49.5568 102.006C49.2083 102.29 48.9489 102.667 48.7784 103.136C48.6117 103.602 48.5284 104.114 48.5284 104.67C48.5284 105.231 48.6117 105.744 48.7784 106.21C48.9489 106.676 49.2083 107.049 49.5568 107.33C49.9091 107.61 50.3523 107.75 50.8864 107.75ZM60.5043 112.455C59.8111 112.455 59.2145 112.364 58.7145 112.182C58.2183 112 57.813 111.759 57.4986 111.46C57.1842 111.161 56.9493 110.833 56.794 110.477L58.2543 109.875C58.3565 110.042 58.4929 110.218 58.6634 110.403C58.8376 110.593 59.0724 110.754 59.3679 110.886C59.6671 111.019 60.0516 111.085 60.5213 111.085C61.1652 111.085 61.6974 110.928 62.1179 110.614C62.5384 110.303 62.7486 109.807 62.7486 109.125V107.409H62.6406C62.5384 107.595 62.3906 107.801 62.1974 108.028C62.008 108.256 61.7467 108.453 61.4134 108.619C61.08 108.786 60.6463 108.869 60.1122 108.869C59.4228 108.869 58.8016 108.708 58.2486 108.386C57.6993 108.061 57.2637 107.581 56.9418 106.949C56.6236 106.312 56.4645 105.53 56.4645 104.602C56.4645 103.674 56.6217 102.879 56.9361 102.216C57.2543 101.553 57.6899 101.045 58.2429 100.693C58.7959 100.337 59.4228 100.159 60.1236 100.159C60.6652 100.159 61.1027 100.25 61.4361 100.432C61.7694 100.61 62.0289 100.818 62.2145 101.057C62.4039 101.295 62.5497 101.506 62.652 101.688H62.777V100.273H64.4418V109.193C64.4418 109.943 64.2675 110.559 63.919 111.04C63.5705 111.521 63.099 111.877 62.5043 112.108C61.9134 112.339 61.2467 112.455 60.5043 112.455ZM60.4872 107.46C60.9759 107.46 61.3887 107.347 61.7259 107.119C62.0668 106.888 62.3243 106.559 62.4986 106.131C62.6766 105.699 62.7656 105.182 62.7656 104.58C62.7656 103.992 62.6785 103.475 62.5043 103.028C62.33 102.581 62.0743 102.233 61.7372 101.983C61.4001 101.729 60.9834 101.602 60.4872 101.602C59.9759 101.602 59.5497 101.735 59.2088 102C58.8679 102.261 58.6103 102.617 58.4361 103.068C58.2656 103.519 58.1804 104.023 58.1804 104.58C58.1804 105.152 58.2675 105.653 58.4418 106.085C58.616 106.517 58.8736 106.854 59.2145 107.097C59.5592 107.339 59.9834 107.46 60.4872 107.46ZM66.7202 109V100.273H68.3622V101.659H68.4531C68.6122 101.189 68.8925 100.82 69.294 100.551C69.6993 100.278 70.1577 100.142 70.669 100.142C70.7751 100.142 70.9001 100.146 71.044 100.153C71.1918 100.161 71.3073 100.17 71.3906 100.182V101.807C71.3224 101.788 71.2012 101.767 71.027 101.744C70.8527 101.718 70.6785 101.705 70.5043 101.705C70.1027 101.705 69.7448 101.79 69.4304 101.96C69.1198 102.127 68.8736 102.36 68.6918 102.659C68.5099 102.955 68.419 103.292 68.419 103.67V109H66.7202ZM75.3224 109.193C74.7694 109.193 74.2694 109.091 73.8224 108.886C73.3755 108.678 73.0213 108.377 72.7599 107.983C72.5024 107.589 72.3736 107.106 72.3736 106.534C72.3736 106.042 72.4683 105.636 72.6577 105.318C72.8471 105 73.1027 104.748 73.4247 104.562C73.7467 104.377 74.1065 104.237 74.5043 104.142C74.902 104.047 75.3073 103.975 75.7202 103.926C76.2429 103.866 76.6671 103.816 76.9929 103.778C77.3187 103.737 77.5554 103.67 77.7031 103.58C77.8509 103.489 77.9247 103.341 77.9247 103.136V103.097C77.9247 102.6 77.7846 102.216 77.5043 101.943C77.2277 101.67 76.8149 101.534 76.2656 101.534C75.6937 101.534 75.2429 101.661 74.9134 101.915C74.5876 102.165 74.3622 102.443 74.2372 102.75L72.6406 102.386C72.83 101.856 73.1065 101.428 73.4702 101.102C73.8376 100.773 74.2599 100.534 74.7372 100.386C75.2145 100.235 75.7164 100.159 76.2429 100.159C76.5914 100.159 76.9607 100.201 77.3509 100.284C77.7448 100.364 78.1122 100.511 78.4531 100.727C78.7978 100.943 79.08 101.252 79.2997 101.653C79.5194 102.051 79.6293 102.568 79.6293 103.205V109H77.9702V107.807H77.902C77.7921 108.027 77.6274 108.242 77.4077 108.455C77.188 108.667 76.9058 108.843 76.5611 108.983C76.2164 109.123 75.8035 109.193 75.3224 109.193ZM75.6918 107.83C76.1615 107.83 76.563 107.737 76.8963 107.551C77.2334 107.366 77.4891 107.123 77.6634 106.824C77.8414 106.521 77.9304 106.197 77.9304 105.852V104.727C77.8698 104.788 77.7524 104.845 77.5781 104.898C77.4077 104.947 77.2126 104.991 76.9929 105.028C76.7732 105.062 76.5592 105.095 76.3509 105.125C76.1425 105.152 75.9683 105.174 75.8281 105.193C75.4986 105.235 75.1974 105.305 74.9247 105.403C74.6558 105.502 74.4399 105.644 74.277 105.83C74.1179 106.011 74.0384 106.254 74.0384 106.557C74.0384 106.977 74.1937 107.295 74.5043 107.511C74.8149 107.723 75.2107 107.83 75.6918 107.83ZM81.892 109V100.273H83.5227V101.693H83.6307C83.8125 101.212 84.1098 100.837 84.5227 100.568C84.9356 100.295 85.4299 100.159 86.0057 100.159C86.589 100.159 87.0777 100.295 87.4716 100.568C87.8693 100.841 88.1629 101.216 88.3523 101.693H88.4432C88.6515 101.227 88.983 100.856 89.4375 100.58C89.892 100.299 90.4337 100.159 91.0625 100.159C91.8542 100.159 92.5 100.407 93 100.903C93.5038 101.4 93.7557 102.148 93.7557 103.148V109H92.0568V103.307C92.0568 102.716 91.8958 102.288 91.5739 102.023C91.2519 101.758 90.8674 101.625 90.4205 101.625C89.8674 101.625 89.4375 101.795 89.1307 102.136C88.8239 102.473 88.6705 102.907 88.6705 103.438V109H86.9773V103.199C86.9773 102.725 86.8295 102.345 86.5341 102.057C86.2386 101.769 85.8542 101.625 85.3807 101.625C85.0587 101.625 84.7614 101.71 84.4886 101.881C84.2197 102.047 84.0019 102.28 83.8352 102.58C83.6723 102.879 83.5909 103.225 83.5909 103.619V109H81.892ZM102.572 102.403L101.033 102.676C100.968 102.479 100.866 102.292 100.726 102.114C100.589 101.936 100.404 101.79 100.169 101.676C99.9342 101.562 99.6406 101.506 99.2884 101.506C98.8073 101.506 98.4058 101.614 98.0838 101.83C97.7618 102.042 97.6009 102.316 97.6009 102.653C97.6009 102.945 97.7088 103.18 97.9247 103.358C98.1406 103.536 98.4891 103.682 98.9702 103.795L100.357 104.114C101.16 104.299 101.758 104.585 102.152 104.972C102.546 105.358 102.743 105.86 102.743 106.477C102.743 107 102.591 107.466 102.288 107.875C101.989 108.28 101.571 108.598 101.033 108.83C100.499 109.061 99.8793 109.176 99.1747 109.176C98.1974 109.176 97.4001 108.968 96.7827 108.551C96.1652 108.131 95.7865 107.534 95.6463 106.761L97.2884 106.511C97.3906 106.939 97.6009 107.263 97.919 107.483C98.2372 107.699 98.652 107.807 99.1634 107.807C99.7202 107.807 100.165 107.691 100.499 107.46C100.832 107.225 100.999 106.939 100.999 106.602C100.999 106.33 100.896 106.1 100.692 105.915C100.491 105.729 100.182 105.589 99.7656 105.494L98.2884 105.17C97.474 104.985 96.8717 104.689 96.4815 104.284C96.0952 103.879 95.902 103.366 95.902 102.744C95.902 102.229 96.0459 101.778 96.3338 101.392C96.6217 101.006 97.0194 100.705 97.527 100.489C98.0346 100.269 98.616 100.159 99.2713 100.159C100.214 100.159 100.957 100.364 101.499 100.773C102.04 101.178 102.398 101.722 102.572 102.403ZM112.521 109.176C111.703 109.176 110.989 108.989 110.379 108.614C109.769 108.239 109.296 107.714 108.959 107.04C108.622 106.366 108.453 105.578 108.453 104.676C108.453 103.771 108.622 102.979 108.959 102.301C109.296 101.623 109.769 101.097 110.379 100.722C110.989 100.347 111.703 100.159 112.521 100.159C113.339 100.159 114.054 100.347 114.663 100.722C115.273 101.097 115.747 101.623 116.084 102.301C116.421 102.979 116.589 103.771 116.589 104.676C116.589 105.578 116.421 106.366 116.084 107.04C115.747 107.714 115.273 108.239 114.663 108.614C114.054 108.989 113.339 109.176 112.521 109.176ZM112.527 107.75C113.057 107.75 113.497 107.61 113.845 107.33C114.194 107.049 114.451 106.676 114.618 106.21C114.788 105.744 114.874 105.231 114.874 104.67C114.874 104.114 114.788 103.602 114.618 103.136C114.451 102.667 114.194 102.29 113.845 102.006C113.497 101.722 113.057 101.58 112.527 101.58C111.993 101.58 111.55 101.722 111.197 102.006C110.849 102.29 110.589 102.667 110.419 103.136C110.252 103.602 110.169 104.114 110.169 104.67C110.169 105.231 110.252 105.744 110.419 106.21C110.589 106.676 110.849 107.049 111.197 107.33C111.55 107.61 111.993 107.75 112.527 107.75ZM118.486 109V100.273H120.128V101.659H120.219C120.378 101.189 120.658 100.82 121.06 100.551C121.465 100.278 121.923 100.142 122.435 100.142C122.541 100.142 122.666 100.146 122.81 100.153C122.957 100.161 123.073 100.17 123.156 100.182V101.807C123.088 101.788 122.967 101.767 122.793 101.744C122.618 101.718 122.444 101.705 122.27 101.705C121.868 101.705 121.51 101.79 121.196 101.96C120.885 102.127 120.639 102.36 120.457 102.659C120.276 102.955 120.185 103.292 120.185 103.67V109H118.486ZM132.537 109.176C131.692 109.176 130.965 108.985 130.355 108.602C129.749 108.216 129.283 107.684 128.957 107.006C128.632 106.328 128.469 105.551 128.469 104.676C128.469 103.79 128.635 103.008 128.969 102.33C129.302 101.648 129.772 101.116 130.378 100.733C130.984 100.35 131.698 100.159 132.52 100.159C133.183 100.159 133.774 100.282 134.293 100.528C134.812 100.771 135.23 101.112 135.548 101.551C135.87 101.991 136.062 102.504 136.122 103.091H134.469C134.378 102.682 134.17 102.33 133.844 102.034C133.522 101.739 133.09 101.591 132.548 101.591C132.075 101.591 131.66 101.716 131.304 101.966C130.952 102.212 130.677 102.564 130.48 103.023C130.283 103.477 130.185 104.015 130.185 104.636C130.185 105.273 130.281 105.822 130.474 106.284C130.668 106.746 130.94 107.104 131.293 107.358C131.649 107.612 132.067 107.739 132.548 107.739C132.87 107.739 133.162 107.68 133.423 107.562C133.688 107.441 133.91 107.269 134.088 107.045C134.27 106.822 134.397 106.553 134.469 106.239H136.122C136.062 106.803 135.878 107.307 135.571 107.75C135.264 108.193 134.853 108.542 134.338 108.795C133.827 109.049 133.226 109.176 132.537 109.176ZM140.479 109.193C139.926 109.193 139.426 109.091 138.979 108.886C138.532 108.678 138.178 108.377 137.916 107.983C137.659 107.589 137.53 107.106 137.53 106.534C137.53 106.042 137.625 105.636 137.814 105.318C138.003 105 138.259 104.748 138.581 104.562C138.903 104.377 139.263 104.237 139.661 104.142C140.058 104.047 140.464 103.975 140.876 103.926C141.399 103.866 141.823 103.816 142.149 103.778C142.475 103.737 142.712 103.67 142.859 103.58C143.007 103.489 143.081 103.341 143.081 103.136V103.097C143.081 102.6 142.941 102.216 142.661 101.943C142.384 101.67 141.971 101.534 141.422 101.534C140.85 101.534 140.399 101.661 140.07 101.915C139.744 102.165 139.518 102.443 139.393 102.75L137.797 102.386C137.986 101.856 138.263 101.428 138.626 101.102C138.994 100.773 139.416 100.534 139.893 100.386C140.371 100.235 140.873 100.159 141.399 100.159C141.748 100.159 142.117 100.201 142.507 100.284C142.901 100.364 143.268 100.511 143.609 100.727C143.954 100.943 144.236 101.252 144.456 101.653C144.676 102.051 144.786 102.568 144.786 103.205V109H143.126V107.807H143.058C142.948 108.027 142.784 108.242 142.564 108.455C142.344 108.667 142.062 108.843 141.717 108.983C141.373 109.123 140.96 109.193 140.479 109.193ZM140.848 107.83C141.318 107.83 141.719 107.737 142.053 107.551C142.39 107.366 142.645 107.123 142.82 106.824C142.998 106.521 143.087 106.197 143.087 105.852V104.727C143.026 104.788 142.909 104.845 142.734 104.898C142.564 104.947 142.369 104.991 142.149 105.028C141.929 105.062 141.715 105.095 141.507 105.125C141.299 105.152 141.125 105.174 140.984 105.193C140.655 105.235 140.354 105.305 140.081 105.403C139.812 105.502 139.596 105.644 139.433 105.83C139.274 106.011 139.195 106.254 139.195 106.557C139.195 106.977 139.35 107.295 139.661 107.511C139.971 107.723 140.367 107.83 140.848 107.83ZM147.048 109V100.273H148.679V101.693H148.787C148.969 101.212 149.266 100.837 149.679 100.568C150.092 100.295 150.586 100.159 151.162 100.159C151.745 100.159 152.234 100.295 152.628 100.568C153.026 100.841 153.319 101.216 153.509 101.693H153.599C153.808 101.227 154.139 100.856 154.594 100.58C155.048 100.299 155.59 100.159 156.219 100.159C157.01 100.159 157.656 100.407 158.156 100.903C158.66 101.4 158.912 102.148 158.912 103.148V109H157.213V103.307C157.213 102.716 157.052 102.288 156.73 102.023C156.408 101.758 156.024 101.625 155.577 101.625C155.024 101.625 154.594 101.795 154.287 102.136C153.98 102.473 153.827 102.907 153.827 103.438V109H152.134V103.199C152.134 102.725 151.986 102.345 151.69 102.057C151.395 101.769 151.01 101.625 150.537 101.625C150.215 101.625 149.918 101.71 149.645 101.881C149.376 102.047 149.158 102.28 148.991 102.58C148.829 102.879 148.747 103.225 148.747 103.619V109H147.048ZM161.189 112.273V100.273H162.848V101.688H162.99C163.089 101.506 163.231 101.295 163.416 101.057C163.602 100.818 163.859 100.61 164.189 100.432C164.518 100.25 164.954 100.159 165.496 100.159C166.2 100.159 166.829 100.337 167.382 100.693C167.935 101.049 168.369 101.562 168.683 102.233C169.001 102.903 169.161 103.71 169.161 104.653C169.161 105.597 169.003 106.405 168.689 107.08C168.375 107.75 167.943 108.267 167.393 108.631C166.844 108.991 166.217 109.17 165.513 109.17C164.982 109.17 164.549 109.081 164.212 108.903C163.878 108.725 163.617 108.517 163.428 108.278C163.238 108.04 163.092 107.828 162.99 107.642H162.888V112.273H161.189ZM162.854 104.636C162.854 105.25 162.943 105.788 163.121 106.25C163.299 106.712 163.556 107.074 163.893 107.335C164.231 107.593 164.643 107.722 165.132 107.722C165.64 107.722 166.064 107.587 166.405 107.318C166.746 107.045 167.003 106.676 167.178 106.21C167.356 105.744 167.445 105.22 167.445 104.636C167.445 104.061 167.357 103.544 167.183 103.085C167.013 102.627 166.755 102.265 166.411 102C166.07 101.735 165.643 101.602 165.132 101.602C164.64 101.602 164.223 101.729 163.882 101.983C163.545 102.237 163.289 102.591 163.115 103.045C162.941 103.5 162.854 104.03 162.854 104.636ZM173.604 109.193C173.051 109.193 172.551 109.091 172.104 108.886C171.657 108.678 171.303 108.377 171.041 107.983C170.784 107.589 170.655 107.106 170.655 106.534C170.655 106.042 170.75 105.636 170.939 105.318C171.128 105 171.384 104.748 171.706 104.562C172.028 104.377 172.388 104.237 172.786 104.142C173.183 104.047 173.589 103.975 174.001 103.926C174.524 103.866 174.948 103.816 175.274 103.778C175.6 103.737 175.837 103.67 175.984 103.58C176.132 103.489 176.206 103.341 176.206 103.136V103.097C176.206 102.6 176.066 102.216 175.786 101.943C175.509 101.67 175.096 101.534 174.547 101.534C173.975 101.534 173.524 101.661 173.195 101.915C172.869 102.165 172.643 102.443 172.518 102.75L170.922 102.386C171.111 101.856 171.388 101.428 171.751 101.102C172.119 100.773 172.541 100.534 173.018 100.386C173.496 100.235 173.998 100.159 174.524 100.159C174.873 100.159 175.242 100.201 175.632 100.284C176.026 100.364 176.393 100.511 176.734 100.727C177.079 100.943 177.361 101.252 177.581 101.653C177.801 102.051 177.911 102.568 177.911 103.205V109H176.251V107.807H176.183C176.073 108.027 175.909 108.242 175.689 108.455C175.469 108.667 175.187 108.843 174.842 108.983C174.498 109.123 174.085 109.193 173.604 109.193ZM173.973 107.83C174.443 107.83 174.844 107.737 175.178 107.551C175.515 107.366 175.77 107.123 175.945 106.824C176.123 106.521 176.212 106.197 176.212 105.852V104.727C176.151 104.788 176.034 104.845 175.859 104.898C175.689 104.947 175.494 104.991 175.274 105.028C175.054 105.062 174.84 105.095 174.632 105.125C174.424 105.152 174.25 105.174 174.109 105.193C173.78 105.235 173.479 105.305 173.206 105.403C172.937 105.502 172.721 105.644 172.558 105.83C172.399 106.011 172.32 106.254 172.32 106.557C172.32 106.977 172.475 107.295 172.786 107.511C173.096 107.723 173.492 107.83 173.973 107.83ZM180.173 109V100.273H181.872V109H180.173ZM181.031 98.9261C180.736 98.9261 180.482 98.8277 180.27 98.6307C180.062 98.4299 179.957 98.1913 179.957 97.9148C179.957 97.6345 180.062 97.3958 180.27 97.1989C180.482 96.9981 180.736 96.8977 181.031 96.8977C181.327 96.8977 181.579 96.9981 181.787 97.1989C181.999 97.3958 182.105 97.6345 182.105 97.9148C182.105 98.1913 181.999 98.4299 181.787 98.6307C181.579 98.8277 181.327 98.9261 181.031 98.9261ZM187.817 112.455C187.124 112.455 186.527 112.364 186.027 112.182C185.531 112 185.125 111.759 184.811 111.46C184.497 111.161 184.262 110.833 184.107 110.477L185.567 109.875C185.669 110.042 185.805 110.218 185.976 110.403C186.15 110.593 186.385 110.754 186.68 110.886C186.98 111.019 187.364 111.085 187.834 111.085C188.478 111.085 189.01 110.928 189.43 110.614C189.851 110.303 190.061 109.807 190.061 109.125V107.409H189.953C189.851 107.595 189.703 107.801 189.51 108.028C189.321 108.256 189.059 108.453 188.726 108.619C188.393 108.786 187.959 108.869 187.425 108.869C186.735 108.869 186.114 108.708 185.561 108.386C185.012 108.061 184.576 107.581 184.254 106.949C183.936 106.312 183.777 105.53 183.777 104.602C183.777 103.674 183.934 102.879 184.249 102.216C184.567 101.553 185.002 101.045 185.555 100.693C186.108 100.337 186.735 100.159 187.436 100.159C187.978 100.159 188.415 100.25 188.749 100.432C189.082 100.61 189.341 100.818 189.527 101.057C189.716 101.295 189.862 101.506 189.964 101.688H190.089V100.273H191.754V109.193C191.754 109.943 191.58 110.559 191.232 111.04C190.883 111.521 190.411 111.877 189.817 112.108C189.226 112.339 188.559 112.455 187.817 112.455ZM187.8 107.46C188.288 107.46 188.701 107.347 189.038 107.119C189.379 106.888 189.637 106.559 189.811 106.131C189.989 105.699 190.078 105.182 190.078 104.58C190.078 103.992 189.991 103.475 189.817 103.028C189.643 102.581 189.387 102.233 189.05 101.983C188.713 101.729 188.296 101.602 187.8 101.602C187.288 101.602 186.862 101.735 186.521 102C186.18 102.261 185.923 102.617 185.749 103.068C185.578 103.519 185.493 104.023 185.493 104.58C185.493 105.152 185.58 105.653 185.754 106.085C185.929 106.517 186.186 106.854 186.527 107.097C186.872 107.339 187.296 107.46 187.8 107.46ZM195.732 103.818V109H194.033V100.273H195.663V101.693H195.771C195.972 101.231 196.286 100.86 196.714 100.58C197.146 100.299 197.69 100.159 198.345 100.159C198.94 100.159 199.461 100.284 199.908 100.534C200.355 100.78 200.701 101.148 200.947 101.636C201.194 102.125 201.317 102.729 201.317 103.449V109H199.618V103.653C199.618 103.021 199.453 102.527 199.124 102.17C198.794 101.811 198.341 101.631 197.766 101.631C197.372 101.631 197.021 101.716 196.714 101.886C196.411 102.057 196.171 102.307 195.993 102.636C195.819 102.962 195.732 103.356 195.732 103.818ZM210.135 102.403L208.595 102.676C208.531 102.479 208.429 102.292 208.288 102.114C208.152 101.936 207.966 101.79 207.732 101.676C207.497 101.562 207.203 101.506 206.851 101.506C206.37 101.506 205.968 101.614 205.646 101.83C205.324 102.042 205.163 102.316 205.163 102.653C205.163 102.945 205.271 103.18 205.487 103.358C205.703 103.536 206.052 103.682 206.533 103.795L207.919 104.114C208.722 104.299 209.321 104.585 209.714 104.972C210.108 105.358 210.305 105.86 210.305 106.477C210.305 107 210.154 107.466 209.851 107.875C209.552 108.28 209.133 108.598 208.595 108.83C208.061 109.061 207.442 109.176 206.737 109.176C205.76 109.176 204.963 108.968 204.345 108.551C203.728 108.131 203.349 107.534 203.209 106.761L204.851 106.511C204.953 106.939 205.163 107.263 205.482 107.483C205.8 107.699 206.214 107.807 206.726 107.807C207.283 107.807 207.728 107.691 208.061 107.46C208.394 107.225 208.561 106.939 208.561 106.602C208.561 106.33 208.459 106.1 208.254 105.915C208.054 105.729 207.745 105.589 207.328 105.494L205.851 105.17C205.036 104.985 204.434 104.689 204.044 104.284C203.658 103.879 203.464 103.366 203.464 102.744C203.464 102.229 203.608 101.778 203.896 101.392C204.184 101.006 204.582 100.705 205.089 100.489C205.597 100.269 206.179 100.159 206.834 100.159C207.777 100.159 208.519 100.364 209.061 100.773C209.603 101.178 209.961 101.722 210.135 102.403ZM218.947 109.193C218.394 109.193 217.894 109.091 217.447 108.886C217 108.678 216.646 108.377 216.385 107.983C216.127 107.589 215.999 107.106 215.999 106.534C215.999 106.042 216.093 105.636 216.283 105.318C216.472 105 216.728 104.748 217.05 104.562C217.372 104.377 217.732 104.237 218.129 104.142C218.527 104.047 218.932 103.975 219.345 103.926C219.868 103.866 220.292 103.816 220.618 103.778C220.944 103.737 221.18 103.67 221.328 103.58C221.476 103.489 221.55 103.341 221.55 103.136V103.097C221.55 102.6 221.41 102.216 221.129 101.943C220.853 101.67 220.44 101.534 219.891 101.534C219.319 101.534 218.868 101.661 218.538 101.915C218.213 102.165 217.987 102.443 217.862 102.75L216.266 102.386C216.455 101.856 216.732 101.428 217.095 101.102C217.463 100.773 217.885 100.534 218.362 100.386C218.839 100.235 219.341 100.159 219.868 100.159C220.216 100.159 220.586 100.201 220.976 100.284C221.37 100.364 221.737 100.511 222.078 100.727C222.423 100.943 222.705 101.252 222.925 101.653C223.144 102.051 223.254 102.568 223.254 103.205V109H221.595V107.807H221.527C221.417 108.027 221.252 108.242 221.033 108.455C220.813 108.667 220.531 108.843 220.186 108.983C219.841 109.123 219.429 109.193 218.947 109.193ZM219.317 107.83C219.786 107.83 220.188 107.737 220.521 107.551C220.858 107.366 221.114 107.123 221.288 106.824C221.466 106.521 221.555 106.197 221.555 105.852V104.727C221.495 104.788 221.377 104.845 221.203 104.898C221.033 104.947 220.838 104.991 220.618 105.028C220.398 105.062 220.184 105.095 219.976 105.125C219.768 105.152 219.593 105.174 219.453 105.193C219.124 105.235 218.822 105.305 218.55 105.403C218.281 105.502 218.065 105.644 217.902 105.83C217.743 106.011 217.663 106.254 217.663 106.557C217.663 106.977 217.819 107.295 218.129 107.511C218.44 107.723 218.836 107.83 219.317 107.83ZM225.517 109V100.273H227.159V101.659H227.25C227.409 101.189 227.689 100.82 228.091 100.551C228.496 100.278 228.955 100.142 229.466 100.142C229.572 100.142 229.697 100.146 229.841 100.153C229.989 100.161 230.104 100.17 230.188 100.182V101.807C230.119 101.788 229.998 101.767 229.824 101.744C229.65 101.718 229.475 101.705 229.301 101.705C228.9 101.705 228.542 101.79 228.227 101.96C227.917 102.127 227.67 102.36 227.489 102.659C227.307 102.955 227.216 103.292 227.216 103.67V109H225.517ZM235.107 109.176C234.247 109.176 233.506 108.992 232.885 108.625C232.268 108.254 231.79 107.733 231.453 107.062C231.12 106.388 230.953 105.598 230.953 104.693C230.953 103.799 231.12 103.011 231.453 102.33C231.79 101.648 232.26 101.116 232.862 100.733C233.468 100.35 234.177 100.159 234.987 100.159C235.48 100.159 235.957 100.241 236.419 100.403C236.881 100.566 237.296 100.822 237.663 101.17C238.031 101.519 238.321 101.972 238.533 102.528C238.745 103.081 238.851 103.754 238.851 104.545V105.148H231.913V103.875H237.186C237.186 103.428 237.095 103.032 236.913 102.688C236.732 102.339 236.476 102.064 236.146 101.864C235.821 101.663 235.438 101.562 234.999 101.562C234.521 101.562 234.105 101.68 233.749 101.915C233.396 102.146 233.124 102.449 232.93 102.824C232.741 103.195 232.646 103.598 232.646 104.034V105.028C232.646 105.612 232.749 106.108 232.953 106.517C233.161 106.926 233.451 107.239 233.822 107.455C234.194 107.667 234.627 107.773 235.124 107.773C235.446 107.773 235.739 107.727 236.004 107.636C236.269 107.542 236.499 107.402 236.692 107.216C236.885 107.03 237.033 106.801 237.135 106.528L238.743 106.818C238.614 107.292 238.383 107.706 238.05 108.062C237.72 108.415 237.305 108.689 236.805 108.886C236.309 109.08 235.743 109.176 235.107 109.176ZM244.97 109V100.273H246.669V109H244.97ZM245.828 98.9261C245.533 98.9261 245.279 98.8277 245.067 98.6307C244.858 98.4299 244.754 98.1913 244.754 97.9148C244.754 97.6345 244.858 97.3958 245.067 97.1989C245.279 96.9981 245.533 96.8977 245.828 96.8977C246.124 96.8977 246.375 96.9981 246.584 97.1989C246.796 97.3958 246.902 97.6345 246.902 97.9148C246.902 98.1913 246.796 98.4299 246.584 98.6307C246.375 98.8277 246.124 98.9261 245.828 98.9261ZM250.653 103.818V109H248.955V100.273H250.585V101.693H250.693C250.894 101.231 251.208 100.86 251.636 100.58C252.068 100.299 252.612 100.159 253.267 100.159C253.862 100.159 254.383 100.284 254.83 100.534C255.277 100.78 255.623 101.148 255.869 101.636C256.116 102.125 256.239 102.729 256.239 103.449V109H254.54V103.653C254.54 103.021 254.375 102.527 254.045 102.17C253.716 101.811 253.263 101.631 252.688 101.631C252.294 101.631 251.943 101.716 251.636 101.886C251.333 102.057 251.093 102.307 250.915 102.636C250.741 102.962 250.653 103.356 250.653 103.818ZM258.517 109V100.273H260.216V109H258.517ZM259.375 98.9261C259.08 98.9261 258.826 98.8277 258.614 98.6307C258.405 98.4299 258.301 98.1913 258.301 97.9148C258.301 97.6345 258.405 97.3958 258.614 97.1989C258.826 96.9981 259.08 96.8977 259.375 96.8977C259.67 96.8977 259.922 96.9981 260.131 97.1989C260.343 97.3958 260.449 97.6345 260.449 97.9148C260.449 98.1913 260.343 98.4299 260.131 98.6307C259.922 98.8277 259.67 98.9261 259.375 98.9261ZM266.575 100.273V101.636H261.808V100.273H266.575ZM263.087 98.1818H264.786V106.438C264.786 106.767 264.835 107.015 264.933 107.182C265.032 107.345 265.159 107.456 265.314 107.517C265.473 107.574 265.645 107.602 265.831 107.602C265.967 107.602 266.087 107.593 266.189 107.574C266.291 107.555 266.371 107.54 266.428 107.528L266.734 108.932C266.636 108.97 266.496 109.008 266.314 109.045C266.132 109.087 265.905 109.11 265.632 109.114C265.185 109.121 264.768 109.042 264.382 108.875C263.996 108.708 263.683 108.451 263.445 108.102C263.206 107.754 263.087 107.316 263.087 106.79V98.1818ZM268.455 109V100.273H270.153V109H268.455ZM269.312 98.9261C269.017 98.9261 268.763 98.8277 268.551 98.6307C268.343 98.4299 268.239 98.1913 268.239 97.9148C268.239 97.6345 268.343 97.3958 268.551 97.1989C268.763 96.9981 269.017 96.8977 269.312 96.8977C269.608 96.8977 269.86 96.9981 270.068 97.1989C270.28 97.3958 270.386 97.6345 270.386 97.9148C270.386 98.1913 270.28 98.4299 270.068 98.6307C269.86 98.8277 269.608 98.9261 269.312 98.9261ZM274.979 109.193C274.426 109.193 273.926 109.091 273.479 108.886C273.032 108.678 272.678 108.377 272.416 107.983C272.159 107.589 272.03 107.106 272.03 106.534C272.03 106.042 272.125 105.636 272.314 105.318C272.503 105 272.759 104.748 273.081 104.562C273.403 104.377 273.763 104.237 274.161 104.142C274.558 104.047 274.964 103.975 275.376 103.926C275.899 103.866 276.323 103.816 276.649 103.778C276.975 103.737 277.212 103.67 277.359 103.58C277.507 103.489 277.581 103.341 277.581 103.136V103.097C277.581 102.6 277.441 102.216 277.161 101.943C276.884 101.67 276.471 101.534 275.922 101.534C275.35 101.534 274.899 101.661 274.57 101.915C274.244 102.165 274.018 102.443 273.893 102.75L272.297 102.386C272.486 101.856 272.763 101.428 273.126 101.102C273.494 100.773 273.916 100.534 274.393 100.386C274.871 100.235 275.373 100.159 275.899 100.159C276.248 100.159 276.617 100.201 277.007 100.284C277.401 100.364 277.768 100.511 278.109 100.727C278.454 100.943 278.736 101.252 278.956 101.653C279.176 102.051 279.286 102.568 279.286 103.205V109H277.626V107.807H277.558C277.448 108.027 277.284 108.242 277.064 108.455C276.844 108.667 276.562 108.843 276.217 108.983C275.873 109.123 275.46 109.193 274.979 109.193ZM275.348 107.83C275.818 107.83 276.219 107.737 276.553 107.551C276.89 107.366 277.145 107.123 277.32 106.824C277.498 106.521 277.587 106.197 277.587 105.852V104.727C277.526 104.788 277.409 104.845 277.234 104.898C277.064 104.947 276.869 104.991 276.649 105.028C276.429 105.062 276.215 105.095 276.007 105.125C275.799 105.152 275.625 105.174 275.484 105.193C275.155 105.235 274.854 105.305 274.581 105.403C274.312 105.502 274.096 105.644 273.933 105.83C273.774 106.011 273.695 106.254 273.695 106.557C273.695 106.977 273.85 107.295 274.161 107.511C274.471 107.723 274.867 107.83 275.348 107.83ZM285.622 100.273V101.636H280.855V100.273H285.622ZM282.134 98.1818H283.832V106.438C283.832 106.767 283.882 107.015 283.98 107.182C284.079 107.345 284.205 107.456 284.361 107.517C284.52 107.574 284.692 107.602 284.878 107.602C285.014 107.602 285.134 107.593 285.236 107.574C285.338 107.555 285.418 107.54 285.474 107.528L285.781 108.932C285.683 108.97 285.543 109.008 285.361 109.045C285.179 109.087 284.952 109.11 284.679 109.114C284.232 109.121 283.815 109.042 283.429 108.875C283.043 108.708 282.73 108.451 282.491 108.102C282.253 107.754 282.134 107.316 282.134 106.79V98.1818ZM291.169 109.176C290.309 109.176 289.569 108.992 288.947 108.625C288.33 108.254 287.853 107.733 287.516 107.062C287.182 106.388 287.016 105.598 287.016 104.693C287.016 103.799 287.182 103.011 287.516 102.33C287.853 101.648 288.322 101.116 288.925 100.733C289.531 100.35 290.239 100.159 291.05 100.159C291.542 100.159 292.019 100.241 292.482 100.403C292.944 100.566 293.358 100.822 293.726 101.17C294.093 101.519 294.383 101.972 294.595 102.528C294.807 103.081 294.913 103.754 294.913 104.545V105.148H287.976V103.875H293.249C293.249 103.428 293.158 103.032 292.976 102.688C292.794 102.339 292.538 102.064 292.209 101.864C291.883 101.663 291.5 101.562 291.061 101.562C290.584 101.562 290.167 101.68 289.811 101.915C289.459 102.146 289.186 102.449 288.993 102.824C288.804 103.195 288.709 103.598 288.709 104.034V105.028C288.709 105.612 288.811 106.108 289.016 106.517C289.224 106.926 289.514 107.239 289.885 107.455C290.256 107.667 290.69 107.773 291.186 107.773C291.508 107.773 291.802 107.727 292.067 107.636C292.332 107.542 292.561 107.402 292.754 107.216C292.947 107.03 293.095 106.801 293.197 106.528L294.805 106.818C294.677 107.292 294.446 107.706 294.112 108.062C293.783 108.415 293.368 108.689 292.868 108.886C292.372 109.08 291.805 109.176 291.169 109.176ZM300.065 109.17C299.361 109.17 298.732 108.991 298.179 108.631C297.63 108.267 297.198 107.75 296.884 107.08C296.573 106.405 296.418 105.597 296.418 104.653C296.418 103.71 296.575 102.903 296.889 102.233C297.207 101.562 297.643 101.049 298.196 100.693C298.749 100.337 299.376 100.159 300.077 100.159C300.618 100.159 301.054 100.25 301.384 100.432C301.717 100.61 301.974 100.818 302.156 101.057C302.342 101.295 302.486 101.506 302.588 101.688H302.69V97.3636H304.389V109H302.73V107.642H302.588C302.486 107.828 302.338 108.04 302.145 108.278C301.955 108.517 301.694 108.725 301.361 108.903C301.027 109.081 300.596 109.17 300.065 109.17ZM300.44 107.722C300.929 107.722 301.342 107.593 301.679 107.335C302.02 107.074 302.277 106.712 302.452 106.25C302.63 105.788 302.719 105.25 302.719 104.636C302.719 104.03 302.632 103.5 302.457 103.045C302.283 102.591 302.027 102.237 301.69 101.983C301.353 101.729 300.937 101.602 300.44 101.602C299.929 101.602 299.503 101.735 299.162 102C298.821 102.265 298.563 102.627 298.389 103.085C298.219 103.544 298.134 104.061 298.134 104.636C298.134 105.22 298.221 105.744 298.395 106.21C298.569 106.676 298.827 107.045 299.168 107.318C299.512 107.587 299.937 107.722 300.44 107.722ZM311.185 109V97.3636H312.884V101.688H312.986C313.084 101.506 313.226 101.295 313.412 101.057C313.598 100.818 313.855 100.61 314.185 100.432C314.514 100.25 314.95 100.159 315.491 100.159C316.196 100.159 316.825 100.337 317.378 100.693C317.931 101.049 318.365 101.562 318.679 102.233C318.997 102.903 319.156 103.71 319.156 104.653C319.156 105.597 318.999 106.405 318.685 107.08C318.37 107.75 317.938 108.267 317.389 108.631C316.84 108.991 316.213 109.17 315.509 109.17C314.978 109.17 314.545 109.081 314.207 108.903C313.874 108.725 313.613 108.517 313.423 108.278C313.234 108.04 313.088 107.828 312.986 107.642H312.844V109H311.185ZM312.849 104.636C312.849 105.25 312.938 105.788 313.116 106.25C313.295 106.712 313.552 107.074 313.889 107.335C314.226 107.593 314.639 107.722 315.128 107.722C315.635 107.722 316.06 107.587 316.401 107.318C316.741 107.045 316.999 106.676 317.173 106.21C317.351 105.744 317.44 105.22 317.44 104.636C317.44 104.061 317.353 103.544 317.179 103.085C317.009 102.627 316.751 102.265 316.406 102C316.065 101.735 315.639 101.602 315.128 101.602C314.635 101.602 314.219 101.729 313.878 101.983C313.541 102.237 313.285 102.591 313.111 103.045C312.937 103.5 312.849 104.03 312.849 104.636ZM321.841 112.273C321.587 112.273 321.356 112.252 321.148 112.21C320.939 112.172 320.784 112.131 320.682 112.085L321.091 110.693C321.402 110.777 321.678 110.813 321.92 110.801C322.163 110.79 322.377 110.699 322.562 110.528C322.752 110.358 322.919 110.08 323.062 109.693L323.273 109.114L320.08 100.273H321.898L324.108 107.045H324.199L326.409 100.273H328.233L324.636 110.165C324.47 110.619 324.258 111.004 324 111.318C323.742 111.636 323.436 111.875 323.08 112.034C322.723 112.193 322.311 112.273 321.841 112.273ZM31.142 131.273V119.273H32.8011V120.688H32.9432C33.0417 120.506 33.1837 120.295 33.3693 120.057C33.5549 119.818 33.8125 119.61 34.142 119.432C34.4716 119.25 34.9072 119.159 35.4489 119.159C36.1534 119.159 36.7822 119.337 37.3352 119.693C37.8883 120.049 38.322 120.562 38.6364 121.233C38.9545 121.903 39.1136 122.71 39.1136 123.653C39.1136 124.597 38.9564 125.405 38.642 126.08C38.3277 126.75 37.8958 127.267 37.3466 127.631C36.7973 127.991 36.1705 128.17 35.4659 128.17C34.9356 128.17 34.5019 128.081 34.1648 127.903C33.8314 127.725 33.5701 127.517 33.3807 127.278C33.1913 127.04 33.0455 126.828 32.9432 126.642H32.8409V131.273H31.142ZM32.8068 123.636C32.8068 124.25 32.8958 124.788 33.0739 125.25C33.2519 125.712 33.5095 126.074 33.8466 126.335C34.1837 126.593 34.5966 126.722 35.0852 126.722C35.5928 126.722 36.017 126.587 36.358 126.318C36.6989 126.045 36.9564 125.676 37.1307 125.21C37.3087 124.744 37.3977 124.22 37.3977 123.636C37.3977 123.061 37.3106 122.544 37.1364 122.085C36.9659 121.627 36.7083 121.265 36.3636 121C36.0227 120.735 35.5966 120.602 35.0852 120.602C34.5928 120.602 34.1761 120.729 33.8352 120.983C33.4981 121.237 33.2424 121.591 33.0682 122.045C32.8939 122.5 32.8068 123.03 32.8068 123.636ZM43.5568 128.193C43.0038 128.193 42.5038 128.091 42.0568 127.886C41.6098 127.678 41.2557 127.377 40.9943 126.983C40.7367 126.589 40.608 126.106 40.608 125.534C40.608 125.042 40.7027 124.636 40.892 124.318C41.0814 124 41.3371 123.748 41.6591 123.562C41.9811 123.377 42.3409 123.237 42.7386 123.142C43.1364 123.047 43.5417 122.975 43.9545 122.926C44.4773 122.866 44.9015 122.816 45.2273 122.778C45.553 122.737 45.7898 122.67 45.9375 122.58C46.0852 122.489 46.1591 122.341 46.1591 122.136V122.097C46.1591 121.6 46.0189 121.216 45.7386 120.943C45.4621 120.67 45.0492 120.534 44.5 120.534C43.928 120.534 43.4773 120.661 43.1477 120.915C42.822 121.165 42.5966 121.443 42.4716 121.75L40.875 121.386C41.0644 120.856 41.3409 120.428 41.7045 120.102C42.072 119.773 42.4943 119.534 42.9716 119.386C43.4489 119.235 43.9508 119.159 44.4773 119.159C44.8258 119.159 45.1951 119.201 45.5852 119.284C45.9792 119.364 46.3466 119.511 46.6875 119.727C47.0322 119.943 47.3144 120.252 47.5341 120.653C47.7538 121.051 47.8636 121.568 47.8636 122.205V128H46.2045V126.807H46.1364C46.0265 127.027 45.8617 127.242 45.642 127.455C45.4223 127.667 45.1402 127.843 44.7955 127.983C44.4508 128.123 44.0379 128.193 43.5568 128.193ZM43.9261 126.83C44.3958 126.83 44.7973 126.737 45.1307 126.551C45.4678 126.366 45.7235 126.123 45.8977 125.824C46.0758 125.521 46.1648 125.197 46.1648 124.852V123.727C46.1042 123.788 45.9867 123.845 45.8125 123.898C45.642 123.947 45.447 123.991 45.2273 124.028C45.0076 124.062 44.7936 124.095 44.5852 124.125C44.3769 124.152 44.2027 124.174 44.0625 124.193C43.733 124.235 43.4318 124.305 43.1591 124.403C42.8902 124.502 42.6742 124.644 42.5114 124.83C42.3523 125.011 42.2727 125.254 42.2727 125.557C42.2727 125.977 42.428 126.295 42.7386 126.511C43.0492 126.723 43.4451 126.83 43.9261 126.83ZM50.1264 128V119.273H51.7685V120.659H51.8594C52.0185 120.189 52.2988 119.82 52.7003 119.551C53.1056 119.278 53.5639 119.142 54.0753 119.142C54.1813 119.142 54.3063 119.146 54.4503 119.153C54.598 119.161 54.7135 119.17 54.7969 119.182V120.807C54.7287 120.788 54.6075 120.767 54.4332 120.744C54.259 120.718 54.0848 120.705 53.9105 120.705C53.509 120.705 53.151 120.79 52.8366 120.96C52.526 121.127 52.2798 121.36 52.098 121.659C51.9162 121.955 51.8253 122.292 51.8253 122.67V128H50.1264ZM60.8565 119.273V120.636H56.0895V119.273H60.8565ZM57.3679 117.182H59.0668V125.438C59.0668 125.767 59.116 126.015 59.2145 126.182C59.313 126.345 59.4399 126.456 59.5952 126.517C59.7543 126.574 59.9266 126.602 60.1122 126.602C60.2486 126.602 60.3679 126.593 60.4702 126.574C60.5724 126.555 60.652 126.54 60.7088 126.528L61.0156 127.932C60.9171 127.97 60.777 128.008 60.5952 128.045C60.4134 128.087 60.1861 128.11 59.9134 128.114C59.4664 128.121 59.0497 128.042 58.6634 127.875C58.277 127.708 57.9645 127.451 57.7259 127.102C57.4872 126.754 57.3679 126.316 57.3679 125.79V117.182ZM62.7358 128V119.273H64.4347V128H62.7358ZM63.5938 117.926C63.2983 117.926 63.0445 117.828 62.8324 117.631C62.6241 117.43 62.5199 117.191 62.5199 116.915C62.5199 116.634 62.6241 116.396 62.8324 116.199C63.0445 115.998 63.2983 115.898 63.5938 115.898C63.8892 115.898 64.1411 115.998 64.3494 116.199C64.5616 116.396 64.6676 116.634 64.6676 116.915C64.6676 117.191 64.5616 117.43 64.3494 117.631C64.1411 117.828 63.8892 117.926 63.5938 117.926ZM70.3963 128.176C69.5516 128.176 68.8243 127.985 68.2145 127.602C67.6084 127.216 67.1425 126.684 66.8168 126.006C66.491 125.328 66.3281 124.551 66.3281 123.676C66.3281 122.79 66.4948 122.008 66.8281 121.33C67.1615 120.648 67.6312 120.116 68.2372 119.733C68.8433 119.35 69.5573 119.159 70.3793 119.159C71.0421 119.159 71.633 119.282 72.152 119.528C72.6709 119.771 73.0895 120.112 73.4077 120.551C73.7296 120.991 73.9209 121.504 73.9815 122.091H72.3281C72.2372 121.682 72.0289 121.33 71.7031 121.034C71.3812 120.739 70.9493 120.591 70.4077 120.591C69.9342 120.591 69.5194 120.716 69.1634 120.966C68.8111 121.212 68.5365 121.564 68.3395 122.023C68.1425 122.477 68.044 123.015 68.044 123.636C68.044 124.273 68.1406 124.822 68.3338 125.284C68.527 125.746 68.7997 126.104 69.152 126.358C69.508 126.612 69.9266 126.739 70.4077 126.739C70.7296 126.739 71.0213 126.68 71.2827 126.562C71.5478 126.441 71.7694 126.269 71.9474 126.045C72.1293 125.822 72.2562 125.553 72.3281 125.239H73.9815C73.9209 125.803 73.7372 126.307 73.4304 126.75C73.1236 127.193 72.7126 127.542 72.1974 127.795C71.6861 128.049 71.0857 128.176 70.3963 128.176ZM75.7983 128V119.273H77.4972V128H75.7983ZM76.6562 117.926C76.3608 117.926 76.107 117.828 75.8949 117.631C75.6866 117.43 75.5824 117.191 75.5824 116.915C75.5824 116.634 75.6866 116.396 75.8949 116.199C76.107 115.998 76.3608 115.898 76.6562 115.898C76.9517 115.898 77.2036 115.998 77.4119 116.199C77.6241 116.396 77.7301 116.634 77.7301 116.915C77.7301 117.191 77.6241 117.43 77.4119 117.631C77.2036 117.828 76.9517 117.926 76.6562 117.926ZM79.7827 131.273V119.273H81.4418V120.688H81.5838C81.6823 120.506 81.8243 120.295 82.0099 120.057C82.1955 119.818 82.4531 119.61 82.7827 119.432C83.1122 119.25 83.5478 119.159 84.0895 119.159C84.794 119.159 85.4228 119.337 85.9759 119.693C86.5289 120.049 86.9626 120.562 87.277 121.233C87.5952 121.903 87.7543 122.71 87.7543 123.653C87.7543 124.597 87.5971 125.405 87.2827 126.08C86.9683 126.75 86.5365 127.267 85.9872 127.631C85.438 127.991 84.8111 128.17 84.1065 128.17C83.5762 128.17 83.1425 128.081 82.8054 127.903C82.4721 127.725 82.2107 127.517 82.0213 127.278C81.8319 127.04 81.6861 126.828 81.5838 126.642H81.4815V131.273H79.7827ZM81.4474 123.636C81.4474 124.25 81.5365 124.788 81.7145 125.25C81.8925 125.712 82.1501 126.074 82.4872 126.335C82.8243 126.593 83.2372 126.722 83.7259 126.722C84.2334 126.722 84.6577 126.587 84.9986 126.318C85.3395 126.045 85.5971 125.676 85.7713 125.21C85.9493 124.744 86.0384 124.22 86.0384 123.636C86.0384 123.061 85.9512 122.544 85.777 122.085C85.6065 121.627 85.349 121.265 85.0043 121C84.6634 120.735 84.2372 120.602 83.7259 120.602C83.2334 120.602 82.8168 120.729 82.4759 120.983C82.1387 121.237 81.883 121.591 81.7088 122.045C81.5346 122.5 81.4474 123.03 81.4474 123.636ZM92.1974 128.193C91.6444 128.193 91.1444 128.091 90.6974 127.886C90.2505 127.678 89.8963 127.377 89.6349 126.983C89.3774 126.589 89.2486 126.106 89.2486 125.534C89.2486 125.042 89.3433 124.636 89.5327 124.318C89.7221 124 89.9777 123.748 90.2997 123.562C90.6217 123.377 90.9815 123.237 91.3793 123.142C91.777 123.047 92.1823 122.975 92.5952 122.926C93.1179 122.866 93.5421 122.816 93.8679 122.778C94.1937 122.737 94.4304 122.67 94.5781 122.58C94.7259 122.489 94.7997 122.341 94.7997 122.136V122.097C94.7997 121.6 94.6596 121.216 94.3793 120.943C94.1027 120.67 93.6899 120.534 93.1406 120.534C92.5687 120.534 92.1179 120.661 91.7884 120.915C91.4626 121.165 91.2372 121.443 91.1122 121.75L89.5156 121.386C89.705 120.856 89.9815 120.428 90.3452 120.102C90.7126 119.773 91.1349 119.534 91.6122 119.386C92.0895 119.235 92.5914 119.159 93.1179 119.159C93.4664 119.159 93.8357 119.201 94.2259 119.284C94.6198 119.364 94.9872 119.511 95.3281 119.727C95.6728 119.943 95.955 120.252 96.1747 120.653C96.3944 121.051 96.5043 121.568 96.5043 122.205V128H94.8452V126.807H94.777C94.6671 127.027 94.5024 127.242 94.2827 127.455C94.063 127.667 93.7808 127.843 93.4361 127.983C93.0914 128.123 92.6785 128.193 92.1974 128.193ZM92.5668 126.83C93.0365 126.83 93.438 126.737 93.7713 126.551C94.1084 126.366 94.3641 126.123 94.5384 125.824C94.7164 125.521 94.8054 125.197 94.8054 124.852V123.727C94.7448 123.788 94.6274 123.845 94.4531 123.898C94.2827 123.947 94.0876 123.991 93.8679 124.028C93.6482 124.062 93.4342 124.095 93.2259 124.125C93.0175 124.152 92.8433 124.174 92.7031 124.193C92.3736 124.235 92.0724 124.305 91.7997 124.403C91.5308 124.502 91.3149 124.644 91.152 124.83C90.9929 125.011 90.9134 125.254 90.9134 125.557C90.9134 125.977 91.0687 126.295 91.3793 126.511C91.6899 126.723 92.0857 126.83 92.5668 126.83ZM100.466 122.818V128H98.767V119.273H100.398V120.693H100.506C100.706 120.231 101.021 119.86 101.449 119.58C101.881 119.299 102.424 119.159 103.08 119.159C103.674 119.159 104.195 119.284 104.642 119.534C105.089 119.78 105.436 120.148 105.682 120.636C105.928 121.125 106.051 121.729 106.051 122.449V128H104.352V122.653C104.352 122.021 104.188 121.527 103.858 121.17C103.528 120.811 103.076 120.631 102.5 120.631C102.106 120.631 101.756 120.716 101.449 120.886C101.146 121.057 100.905 121.307 100.727 121.636C100.553 121.962 100.466 122.356 100.466 122.818ZM112.403 119.273V120.636H107.636V119.273H112.403ZM108.915 117.182H110.614V125.438C110.614 125.767 110.663 126.015 110.761 126.182C110.86 126.345 110.987 126.456 111.142 126.517C111.301 126.574 111.473 126.602 111.659 126.602C111.795 126.602 111.915 126.593 112.017 126.574C112.119 126.555 112.199 126.54 112.256 126.528L112.562 127.932C112.464 127.97 112.324 128.008 112.142 128.045C111.96 128.087 111.733 128.11 111.46 128.114C111.013 128.121 110.597 128.042 110.21 127.875C109.824 127.708 109.511 127.451 109.273 127.102C109.034 126.754 108.915 126.316 108.915 125.79V117.182ZM120.682 121.403L119.142 121.676C119.078 121.479 118.975 121.292 118.835 121.114C118.699 120.936 118.513 120.79 118.278 120.676C118.044 120.562 117.75 120.506 117.398 120.506C116.917 120.506 116.515 120.614 116.193 120.83C115.871 121.042 115.71 121.316 115.71 121.653C115.71 121.945 115.818 122.18 116.034 122.358C116.25 122.536 116.598 122.682 117.08 122.795L118.466 123.114C119.269 123.299 119.867 123.585 120.261 123.972C120.655 124.358 120.852 124.86 120.852 125.477C120.852 126 120.701 126.466 120.398 126.875C120.098 127.28 119.68 127.598 119.142 127.83C118.608 128.061 117.989 128.176 117.284 128.176C116.307 128.176 115.509 127.968 114.892 127.551C114.275 127.131 113.896 126.534 113.756 125.761L115.398 125.511C115.5 125.939 115.71 126.263 116.028 126.483C116.347 126.699 116.761 126.807 117.273 126.807C117.83 126.807 118.275 126.691 118.608 126.46C118.941 126.225 119.108 125.939 119.108 125.602C119.108 125.33 119.006 125.1 118.801 124.915C118.6 124.729 118.292 124.589 117.875 124.494L116.398 124.17C115.583 123.985 114.981 123.689 114.591 123.284C114.205 122.879 114.011 122.366 114.011 121.744C114.011 121.229 114.155 120.778 114.443 120.392C114.731 120.006 115.129 119.705 115.636 119.489C116.144 119.269 116.725 119.159 117.381 119.159C118.324 119.159 119.066 119.364 119.608 119.773C120.15 120.178 120.508 120.722 120.682 121.403ZM123.839 128.108C123.529 128.108 123.262 127.998 123.038 127.778C122.815 127.555 122.703 127.286 122.703 126.972C122.703 126.661 122.815 126.396 123.038 126.176C123.262 125.953 123.529 125.841 123.839 125.841C124.15 125.841 124.417 125.953 124.641 126.176C124.864 126.396 124.976 126.661 124.976 126.972C124.976 127.18 124.923 127.371 124.817 127.545C124.714 127.716 124.578 127.852 124.408 127.955C124.237 128.057 124.048 128.108 123.839 128.108Z" fill="white"/>
<path d="M343.571 37.0714H323.429L316.714 3.5H397.286L390.571 37.0714H370.429M357 3.5V-16.6429M343.571 23.6429V70.6429M370.429 23.6429V70.6429M336.857 70.6429H377.143M326.786 3.5C326.786 3.5 326.786 -16.6429 340.214 -16.6429M387.214 3.5C387.214 3.5 387.214 -16.6429 373.786 -16.6429" stroke="white" stroke-opacity="0.1" stroke-linecap="round" stroke-linejoin="round"/>
</g>
<path d="M0.5 0.5H347C368.815 0.5 386.5 18.1848 386.5 40V151.5H40C18.1847 151.5 0.5 133.815 0.5 112V0.5Z" stroke="white" stroke-opacity="0.1"/>
<defs>
<clipPath id="clip0_167_1102">
<path d="M0 0H347C369.091 0 387 17.9086 387 40V152H40C17.9086 152 0 134.091 0 112V0Z" fill="white"/>
</clipPath>
</defs>
</svg>
