<svg width="387" height="152" viewBox="0 0 387 152" fill="none" xmlns="http://www.w3.org/2000/svg">
<g clip-path="url(#clip0_167_1044)">
<path d="M0 0H347C369.091 0 387 17.9086 387 40V152H40C17.9086 152 0 134.091 0 112V0Z" fill="white" fill-opacity="0.12"/>
<path d="M48.017 31.0909V66H40.6364V38.0966H40.4318L32.4375 43.108V36.5625L41.0795 31.0909H48.017ZM71.5014 31.0909V66H64.1207V38.0966H63.9162L55.9219 43.108V36.5625L64.5639 31.0909H71.5014ZM93.4858 66.767C90.554 66.7557 88.0313 66.0341 85.9176 64.6023C83.8153 63.1705 82.196 61.0966 81.0597 58.3807C79.9347 55.6648 79.3778 52.3977 79.3892 48.5795C79.3892 44.7727 79.9517 41.5284 81.0767 38.8466C82.2131 36.1648 83.8324 34.125 85.9347 32.7273C88.0483 31.3182 90.5653 30.6136 93.4858 30.6136C96.4063 30.6136 98.9176 31.3182 101.02 32.7273C103.134 34.1364 104.759 36.1818 105.895 38.8636C107.031 41.5341 107.594 44.7727 107.582 48.5795C107.582 52.4091 107.014 55.6818 105.878 58.3977C104.753 61.1136 103.139 63.1875 101.037 64.6193C98.9347 66.0511 96.4176 66.767 93.4858 66.767ZM93.4858 60.6477C95.4858 60.6477 97.0824 59.642 98.2756 57.6307C99.4688 55.6193 100.06 52.6023 100.048 48.5795C100.048 45.9318 99.7756 43.7273 99.2301 41.9659C98.696 40.2045 97.9347 38.8807 96.946 37.9943C95.9688 37.108 94.8153 36.6648 93.4858 36.6648C91.4972 36.6648 89.9063 37.6591 88.7131 39.6477C87.5199 41.6364 86.9176 44.6136 86.9062 48.5795C86.9062 51.2614 87.1733 53.5 87.7074 55.2955C88.2528 57.0795 89.0199 58.4205 90.0085 59.3182C90.9972 60.2045 92.1562 60.6477 93.4858 60.6477ZM126.533 66.767C123.601 66.7557 121.078 66.0341 118.964 64.6023C116.862 63.1705 115.243 61.0966 114.107 58.3807C112.982 55.6648 112.425 52.3977 112.436 48.5795C112.436 44.7727 112.999 41.5284 114.124 38.8466C115.26 36.1648 116.879 34.125 118.982 32.7273C121.095 31.3182 123.612 30.6136 126.533 30.6136C129.453 30.6136 131.964 31.3182 134.067 32.7273C136.18 34.1364 137.805 36.1818 138.942 38.8636C140.078 41.5341 140.641 44.7727 140.629 48.5795C140.629 52.4091 140.061 55.6818 138.925 58.3977C137.8 61.1136 136.186 63.1875 134.084 64.6193C131.982 66.0511 129.464 66.767 126.533 66.767ZM126.533 60.6477C128.533 60.6477 130.129 59.642 131.322 57.6307C132.516 55.6193 133.107 52.6023 133.095 48.5795C133.095 45.9318 132.822 43.7273 132.277 41.9659C131.743 40.2045 130.982 38.8807 129.993 37.9943C129.016 37.108 127.862 36.6648 126.533 36.6648C124.544 36.6648 122.953 37.6591 121.76 39.6477C120.567 41.6364 119.964 44.6136 119.953 48.5795C119.953 51.2614 120.22 53.5 120.754 55.2955C121.3 57.0795 122.067 58.4205 123.055 59.3182C124.044 60.2045 125.203 60.6477 126.533 60.6477Z" fill="white"/>
<path d="M30.7045 98.875V97.3636H39.7102V98.875H36.0795V109H34.3295V98.875H30.7045ZM43.9744 109.176C43.1563 109.176 42.4422 108.989 41.8324 108.614C41.2225 108.239 40.7491 107.714 40.4119 107.04C40.0748 106.366 39.9062 105.578 39.9062 104.676C39.9062 103.771 40.0748 102.979 40.4119 102.301C40.7491 101.623 41.2225 101.097 41.8324 100.722C42.4422 100.347 43.1563 100.159 43.9744 100.159C44.7926 100.159 45.5066 100.347 46.1165 100.722C46.7263 101.097 47.1998 101.623 47.5369 102.301C47.8741 102.979 48.0426 103.771 48.0426 104.676C48.0426 105.578 47.8741 106.366 47.5369 107.04C47.1998 107.714 46.7263 108.239 46.1165 108.614C45.5066 108.989 44.7926 109.176 43.9744 109.176ZM43.9801 107.75C44.5104 107.75 44.9498 107.61 45.2983 107.33C45.6468 107.049 45.9044 106.676 46.071 106.21C46.2415 105.744 46.3267 105.231 46.3267 104.67C46.3267 104.114 46.2415 103.602 46.071 103.136C45.9044 102.667 45.6468 102.29 45.2983 102.006C44.9498 101.722 44.5104 101.58 43.9801 101.58C43.446 101.58 43.0028 101.722 42.6506 102.006C42.3021 102.29 42.0426 102.667 41.8722 103.136C41.7055 103.602 41.6222 104.114 41.6222 104.67C41.6222 105.231 41.7055 105.744 41.8722 106.21C42.0426 106.676 42.3021 107.049 42.6506 107.33C43.0028 107.61 43.446 107.75 43.9801 107.75ZM54.0128 100.273V101.636H49.2457V100.273H54.0128ZM50.5241 98.1818H52.223V106.438C52.223 106.767 52.2723 107.015 52.3707 107.182C52.4692 107.345 52.5961 107.456 52.7514 107.517C52.9105 107.574 53.0829 107.602 53.2685 107.602C53.4048 107.602 53.5241 107.593 53.6264 107.574C53.7287 107.555 53.8082 107.54 53.8651 107.528L54.1719 108.932C54.0734 108.97 53.9332 109.008 53.7514 109.045C53.5696 109.087 53.3423 109.11 53.0696 109.114C52.6226 109.121 52.206 109.042 51.8196 108.875C51.4332 108.708 51.1207 108.451 50.8821 108.102C50.6435 107.754 50.5241 107.316 50.5241 106.79V98.1818ZM58.4318 109.193C57.8788 109.193 57.3788 109.091 56.9318 108.886C56.4848 108.678 56.1307 108.377 55.8693 107.983C55.6117 107.589 55.483 107.106 55.483 106.534C55.483 106.042 55.5777 105.636 55.767 105.318C55.9564 105 56.2121 104.748 56.5341 104.562C56.8561 104.377 57.2159 104.237 57.6136 104.142C58.0114 104.047 58.4167 103.975 58.8295 103.926C59.3523 103.866 59.7765 103.816 60.1023 103.778C60.428 103.737 60.6648 103.67 60.8125 103.58C60.9602 103.489 61.0341 103.341 61.0341 103.136V103.097C61.0341 102.6 60.8939 102.216 60.6136 101.943C60.3371 101.67 59.9242 101.534 59.375 101.534C58.803 101.534 58.3523 101.661 58.0227 101.915C57.697 102.165 57.4716 102.443 57.3466 102.75L55.75 102.386C55.9394 101.856 56.2159 101.428 56.5795 101.102C56.947 100.773 57.3693 100.534 57.8466 100.386C58.3239 100.235 58.8258 100.159 59.3523 100.159C59.7008 100.159 60.0701 100.201 60.4602 100.284C60.8542 100.364 61.2216 100.511 61.5625 100.727C61.9072 100.943 62.1894 101.252 62.4091 101.653C62.6288 102.051 62.7386 102.568 62.7386 103.205V109H61.0795V107.807H61.0114C60.9015 108.027 60.7367 108.242 60.517 108.455C60.2973 108.667 60.0152 108.843 59.6705 108.983C59.3258 109.123 58.9129 109.193 58.4318 109.193ZM58.8011 107.83C59.2708 107.83 59.6723 107.737 60.0057 107.551C60.3428 107.366 60.5985 107.123 60.7727 106.824C60.9508 106.521 61.0398 106.197 61.0398 105.852V104.727C60.9792 104.788 60.8617 104.845 60.6875 104.898C60.517 104.947 60.322 104.991 60.1023 105.028C59.8826 105.062 59.6686 105.095 59.4602 105.125C59.2519 105.152 59.0777 105.174 58.9375 105.193C58.608 105.235 58.3068 105.305 58.0341 105.403C57.7652 105.502 57.5492 105.644 57.3864 105.83C57.2273 106.011 57.1477 106.254 57.1477 106.557C57.1477 106.977 57.303 107.295 57.6136 107.511C57.9242 107.723 58.3201 107.83 58.8011 107.83ZM66.7003 97.3636V109H65.0014V97.3636H66.7003ZM74.919 103.818V109H73.2202V97.3636H74.8963V101.693H75.0043C75.2088 101.223 75.5213 100.85 75.9418 100.574C76.3622 100.297 76.9115 100.159 77.5895 100.159C78.188 100.159 78.7107 100.282 79.1577 100.528C79.6084 100.775 79.9569 101.142 80.2031 101.631C80.4531 102.116 80.5781 102.722 80.5781 103.449V109H78.8793V103.653C78.8793 103.013 78.7145 102.517 78.3849 102.165C78.0554 101.809 77.5971 101.631 77.0099 101.631C76.6084 101.631 76.2486 101.716 75.9304 101.886C75.616 102.057 75.3679 102.307 75.1861 102.636C75.008 102.962 74.919 103.356 74.919 103.818ZM86.5213 109.176C85.7031 109.176 84.9891 108.989 84.3793 108.614C83.7694 108.239 83.2959 107.714 82.9588 107.04C82.6217 106.366 82.4531 105.578 82.4531 104.676C82.4531 103.771 82.6217 102.979 82.9588 102.301C83.2959 101.623 83.7694 101.097 84.3793 100.722C84.9891 100.347 85.7031 100.159 86.5213 100.159C87.3395 100.159 88.0535 100.347 88.6634 100.722C89.2732 101.097 89.7467 101.623 90.0838 102.301C90.4209 102.979 90.5895 103.771 90.5895 104.676C90.5895 105.578 90.4209 106.366 90.0838 107.04C89.7467 107.714 89.2732 108.239 88.6634 108.614C88.0535 108.989 87.3395 109.176 86.5213 109.176ZM86.527 107.75C87.0573 107.75 87.4967 107.61 87.8452 107.33C88.1937 107.049 88.4512 106.676 88.6179 106.21C88.7884 105.744 88.8736 105.231 88.8736 104.67C88.8736 104.114 88.7884 103.602 88.6179 103.136C88.4512 102.667 88.1937 102.29 87.8452 102.006C87.4967 101.722 87.0573 101.58 86.527 101.58C85.9929 101.58 85.5497 101.722 85.1974 102.006C84.849 102.29 84.5895 102.667 84.419 103.136C84.2524 103.602 84.169 104.114 84.169 104.67C84.169 105.231 84.2524 105.744 84.419 106.21C84.5895 106.676 84.849 107.049 85.1974 107.33C85.5497 107.61 85.9929 107.75 86.527 107.75ZM98.0142 105.381V100.273H99.7188V109H98.0483V107.489H97.9574C97.7566 107.955 97.4347 108.343 96.9915 108.653C96.5521 108.96 96.0047 109.114 95.3494 109.114C94.7888 109.114 94.2926 108.991 93.8608 108.744C93.4328 108.494 93.0956 108.125 92.8494 107.636C92.607 107.148 92.4858 106.544 92.4858 105.824V100.273H94.1847V105.619C94.1847 106.214 94.3494 106.687 94.679 107.04C95.0085 107.392 95.4366 107.568 95.9631 107.568C96.2813 107.568 96.5975 107.489 96.9119 107.33C97.2301 107.17 97.4934 106.93 97.7017 106.608C97.9138 106.286 98.018 105.877 98.0142 105.381ZM102.001 109V100.273H103.643V101.659H103.734C103.893 101.189 104.174 100.82 104.575 100.551C104.981 100.278 105.439 100.142 105.95 100.142C106.056 100.142 106.181 100.146 106.325 100.153C106.473 100.161 106.589 100.17 106.672 100.182V101.807C106.604 101.788 106.482 101.767 106.308 101.744C106.134 101.718 105.96 101.705 105.786 101.705C105.384 101.705 105.026 101.79 104.712 101.96C104.401 102.127 104.155 102.36 103.973 102.659C103.791 102.955 103.7 103.292 103.7 103.67V109H102.001ZM114.682 102.403L113.142 102.676C113.078 102.479 112.975 102.292 112.835 102.114C112.699 101.936 112.513 101.79 112.278 101.676C112.044 101.562 111.75 101.506 111.398 101.506C110.917 101.506 110.515 101.614 110.193 101.83C109.871 102.042 109.71 102.316 109.71 102.653C109.71 102.945 109.818 103.18 110.034 103.358C110.25 103.536 110.598 103.682 111.08 103.795L112.466 104.114C113.269 104.299 113.867 104.585 114.261 104.972C114.655 105.358 114.852 105.86 114.852 106.477C114.852 107 114.701 107.466 114.398 107.875C114.098 108.28 113.68 108.598 113.142 108.83C112.608 109.061 111.989 109.176 111.284 109.176C110.307 109.176 109.509 108.968 108.892 108.551C108.275 108.131 107.896 107.534 107.756 106.761L109.398 106.511C109.5 106.939 109.71 107.263 110.028 107.483C110.347 107.699 110.761 107.807 111.273 107.807C111.83 107.807 112.275 107.691 112.608 107.46C112.941 107.225 113.108 106.939 113.108 106.602C113.108 106.33 113.006 106.1 112.801 105.915C112.6 105.729 112.292 105.589 111.875 105.494L110.398 105.17C109.583 104.985 108.981 104.689 108.591 104.284C108.205 103.879 108.011 103.366 108.011 102.744C108.011 102.229 108.155 101.778 108.443 101.392C108.731 101.006 109.129 100.705 109.636 100.489C110.144 100.269 110.725 100.159 111.381 100.159C112.324 100.159 113.066 100.364 113.608 100.773C114.15 101.178 114.508 101.722 114.682 102.403ZM124.631 109.176C123.786 109.176 123.059 108.985 122.449 108.602C121.843 108.216 121.377 107.684 121.051 107.006C120.725 106.328 120.562 105.551 120.562 104.676C120.562 103.79 120.729 103.008 121.062 102.33C121.396 101.648 121.866 101.116 122.472 100.733C123.078 100.35 123.792 100.159 124.614 100.159C125.277 100.159 125.867 100.282 126.386 100.528C126.905 100.771 127.324 101.112 127.642 101.551C127.964 101.991 128.155 102.504 128.216 103.091H126.562C126.472 102.682 126.263 102.33 125.938 102.034C125.616 101.739 125.184 101.591 124.642 101.591C124.169 101.591 123.754 101.716 123.398 101.966C123.045 102.212 122.771 102.564 122.574 103.023C122.377 103.477 122.278 104.015 122.278 104.636C122.278 105.273 122.375 105.822 122.568 106.284C122.761 106.746 123.034 107.104 123.386 107.358C123.742 107.612 124.161 107.739 124.642 107.739C124.964 107.739 125.256 107.68 125.517 107.562C125.782 107.441 126.004 107.269 126.182 107.045C126.364 106.822 126.491 106.553 126.562 106.239H128.216C128.155 106.803 127.972 107.307 127.665 107.75C127.358 108.193 126.947 108.542 126.432 108.795C125.92 109.049 125.32 109.176 124.631 109.176ZM133.709 109.176C132.891 109.176 132.177 108.989 131.567 108.614C130.957 108.239 130.483 107.714 130.146 107.04C129.809 106.366 129.641 105.578 129.641 104.676C129.641 103.771 129.809 102.979 130.146 102.301C130.483 101.623 130.957 101.097 131.567 100.722C132.177 100.347 132.891 100.159 133.709 100.159C134.527 100.159 135.241 100.347 135.851 100.722C136.461 101.097 136.934 101.623 137.271 102.301C137.608 102.979 137.777 103.771 137.777 104.676C137.777 105.578 137.608 106.366 137.271 107.04C136.934 107.714 136.461 108.239 135.851 108.614C135.241 108.989 134.527 109.176 133.709 109.176ZM133.714 107.75C134.245 107.75 134.684 107.61 135.033 107.33C135.381 107.049 135.639 106.676 135.805 106.21C135.976 105.744 136.061 105.231 136.061 104.67C136.061 104.114 135.976 103.602 135.805 103.136C135.639 102.667 135.381 102.29 135.033 102.006C134.684 101.722 134.245 101.58 133.714 101.58C133.18 101.58 132.737 101.722 132.385 102.006C132.036 102.29 131.777 102.667 131.607 103.136C131.44 103.602 131.357 104.114 131.357 104.67C131.357 105.231 131.44 105.744 131.607 106.21C131.777 106.676 132.036 107.049 132.385 107.33C132.737 107.61 133.18 107.75 133.714 107.75ZM141.372 103.818V109H139.673V100.273H141.304V101.693H141.412C141.613 101.231 141.927 100.86 142.355 100.58C142.787 100.299 143.33 100.159 143.986 100.159C144.58 100.159 145.101 100.284 145.548 100.534C145.995 100.78 146.342 101.148 146.588 101.636C146.834 102.125 146.957 102.729 146.957 103.449V109H145.259V103.653C145.259 103.021 145.094 102.527 144.764 102.17C144.435 101.811 143.982 101.631 143.406 101.631C143.012 101.631 142.662 101.716 142.355 101.886C142.052 102.057 141.812 102.307 141.634 102.636C141.459 102.962 141.372 103.356 141.372 103.818ZM153.31 100.273V101.636H148.543V100.273H153.31ZM149.821 98.1818H151.52V106.438C151.52 106.767 151.569 107.015 151.668 107.182C151.766 107.345 151.893 107.456 152.048 107.517C152.207 107.574 152.38 107.602 152.565 107.602C152.702 107.602 152.821 107.593 152.923 107.574C153.026 107.555 153.105 107.54 153.162 107.528L153.469 108.932C153.37 108.97 153.23 109.008 153.048 109.045C152.866 109.087 152.639 109.11 152.366 109.114C151.92 109.121 151.503 109.042 151.116 108.875C150.73 108.708 150.418 108.451 150.179 108.102C149.94 107.754 149.821 107.316 149.821 106.79V98.1818ZM155.189 109V100.273H156.831V101.659H156.922C157.081 101.189 157.361 100.82 157.763 100.551C158.168 100.278 158.626 100.142 159.138 100.142C159.244 100.142 159.369 100.146 159.513 100.153C159.661 100.161 159.776 100.17 159.859 100.182V101.807C159.791 101.788 159.67 101.767 159.496 101.744C159.321 101.718 159.147 101.705 158.973 101.705C158.571 101.705 158.214 101.79 157.899 101.96C157.589 102.127 157.342 102.36 157.161 102.659C156.979 102.955 156.888 103.292 156.888 103.67V109H155.189ZM161.33 109V100.273H163.028V109H161.33ZM162.188 98.9261C161.892 98.9261 161.638 98.8277 161.426 98.6307C161.218 98.4299 161.114 98.1913 161.114 97.9148C161.114 97.6345 161.218 97.3958 161.426 97.1989C161.638 96.9981 161.892 96.8977 162.188 96.8977C162.483 96.8977 162.735 96.9981 162.943 97.1989C163.155 97.3958 163.261 97.6345 163.261 97.9148C163.261 98.1913 163.155 98.4299 162.943 98.6307C162.735 98.8277 162.483 98.9261 162.188 98.9261ZM165.45 109V97.3636H167.149V101.688H167.251C167.35 101.506 167.492 101.295 167.678 101.057C167.863 100.818 168.121 100.61 168.45 100.432C168.78 100.25 169.215 100.159 169.757 100.159C170.462 100.159 171.09 100.337 171.643 100.693C172.196 101.049 172.63 101.562 172.945 102.233C173.263 102.903 173.422 103.71 173.422 104.653C173.422 105.597 173.265 106.405 172.95 107.08C172.636 107.75 172.204 108.267 171.655 108.631C171.106 108.991 170.479 109.17 169.774 109.17C169.244 109.17 168.81 109.081 168.473 108.903C168.14 108.725 167.878 108.517 167.689 108.278C167.5 108.04 167.354 107.828 167.251 107.642H167.109V109H165.45ZM167.115 104.636C167.115 105.25 167.204 105.788 167.382 106.25C167.56 106.712 167.818 107.074 168.155 107.335C168.492 107.593 168.905 107.722 169.393 107.722C169.901 107.722 170.325 107.587 170.666 107.318C171.007 107.045 171.265 106.676 171.439 106.21C171.617 105.744 171.706 105.22 171.706 104.636C171.706 104.061 171.619 103.544 171.445 103.085C171.274 102.627 171.017 102.265 170.672 102C170.331 101.735 169.905 101.602 169.393 101.602C168.901 101.602 168.484 101.729 168.143 101.983C167.806 102.237 167.551 102.591 167.376 103.045C167.202 103.5 167.115 104.03 167.115 104.636ZM180.858 105.381V100.273H182.562V109H180.892V107.489H180.801C180.6 107.955 180.278 108.343 179.835 108.653C179.396 108.96 178.848 109.114 178.193 109.114C177.633 109.114 177.136 108.991 176.705 108.744C176.277 108.494 175.939 108.125 175.693 107.636C175.451 107.148 175.33 106.544 175.33 105.824V100.273H177.028V105.619C177.028 106.214 177.193 106.687 177.523 107.04C177.852 107.392 178.28 107.568 178.807 107.568C179.125 107.568 179.441 107.489 179.756 107.33C180.074 107.17 180.337 106.93 180.545 106.608C180.758 106.286 180.862 105.877 180.858 105.381ZM188.919 100.273V101.636H184.152V100.273H188.919ZM185.43 98.1818H187.129V106.438C187.129 106.767 187.179 107.015 187.277 107.182C187.375 107.345 187.502 107.456 187.658 107.517C187.817 107.574 187.989 107.602 188.175 107.602C188.311 107.602 188.43 107.593 188.533 107.574C188.635 107.555 188.714 107.54 188.771 107.528L189.078 108.932C188.98 108.97 188.839 109.008 188.658 109.045C188.476 109.087 188.249 109.11 187.976 109.114C187.529 109.121 187.112 109.042 186.726 108.875C186.339 108.708 186.027 108.451 185.788 108.102C185.55 107.754 185.43 107.316 185.43 106.79V98.1818ZM194.466 109.176C193.606 109.176 192.866 108.992 192.244 108.625C191.627 108.254 191.15 107.733 190.812 107.062C190.479 106.388 190.312 105.598 190.312 104.693C190.312 103.799 190.479 103.011 190.812 102.33C191.15 101.648 191.619 101.116 192.222 100.733C192.828 100.35 193.536 100.159 194.347 100.159C194.839 100.159 195.316 100.241 195.778 100.403C196.241 100.566 196.655 100.822 197.023 101.17C197.39 101.519 197.68 101.972 197.892 102.528C198.104 103.081 198.21 103.754 198.21 104.545V105.148H191.273V103.875H196.545C196.545 103.428 196.455 103.032 196.273 102.688C196.091 102.339 195.835 102.064 195.506 101.864C195.18 101.663 194.797 101.562 194.358 101.562C193.881 101.562 193.464 101.68 193.108 101.915C192.756 102.146 192.483 102.449 192.29 102.824C192.1 103.195 192.006 103.598 192.006 104.034V105.028C192.006 105.612 192.108 106.108 192.312 106.517C192.521 106.926 192.811 107.239 193.182 107.455C193.553 107.667 193.987 107.773 194.483 107.773C194.805 107.773 195.098 107.727 195.364 107.636C195.629 107.542 195.858 107.402 196.051 107.216C196.244 107.03 196.392 106.801 196.494 106.528L198.102 106.818C197.973 107.292 197.742 107.706 197.409 108.062C197.08 108.415 196.665 108.689 196.165 108.886C195.669 109.08 195.102 109.176 194.466 109.176ZM203.362 109.17C202.658 109.17 202.029 108.991 201.476 108.631C200.927 108.267 200.495 107.75 200.18 107.08C199.87 106.405 199.714 105.597 199.714 104.653C199.714 103.71 199.872 102.903 200.186 102.233C200.504 101.562 200.94 101.049 201.493 100.693C202.046 100.337 202.673 100.159 203.374 100.159C203.915 100.159 204.351 100.25 204.68 100.432C205.014 100.61 205.271 100.818 205.453 101.057C205.639 101.295 205.783 101.506 205.885 101.688H205.987V97.3636H207.686V109H206.027V107.642H205.885C205.783 107.828 205.635 108.04 205.442 108.278C205.252 108.517 204.991 108.725 204.658 108.903C204.324 109.081 203.893 109.17 203.362 109.17ZM203.737 107.722C204.226 107.722 204.639 107.593 204.976 107.335C205.317 107.074 205.574 106.712 205.749 106.25C205.927 105.788 206.016 105.25 206.016 104.636C206.016 104.03 205.929 103.5 205.754 103.045C205.58 102.591 205.324 102.237 204.987 101.983C204.65 101.729 204.233 101.602 203.737 101.602C203.226 101.602 202.8 101.735 202.459 102C202.118 102.265 201.86 102.627 201.686 103.085C201.516 103.544 201.43 104.061 201.43 104.636C201.43 105.22 201.518 105.744 201.692 106.21C201.866 106.676 202.124 107.045 202.464 107.318C202.809 107.587 203.233 107.722 203.737 107.722ZM214.482 109V97.3636H216.18V101.688H216.283C216.381 101.506 216.523 101.295 216.709 101.057C216.894 100.818 217.152 100.61 217.482 100.432C217.811 100.25 218.247 100.159 218.788 100.159C219.493 100.159 220.122 100.337 220.675 100.693C221.228 101.049 221.661 101.562 221.976 102.233C222.294 102.903 222.453 103.71 222.453 104.653C222.453 105.597 222.296 106.405 221.982 107.08C221.667 107.75 221.235 108.267 220.686 108.631C220.137 108.991 219.51 109.17 218.805 109.17C218.275 109.17 217.841 109.081 217.504 108.903C217.171 108.725 216.91 108.517 216.72 108.278C216.531 108.04 216.385 107.828 216.283 107.642H216.141V109H214.482ZM216.146 104.636C216.146 105.25 216.235 105.788 216.413 106.25C216.591 106.712 216.849 107.074 217.186 107.335C217.523 107.593 217.936 107.722 218.425 107.722C218.932 107.722 219.357 107.587 219.697 107.318C220.038 107.045 220.296 106.676 220.47 106.21C220.648 105.744 220.737 105.22 220.737 104.636C220.737 104.061 220.65 103.544 220.476 103.085C220.305 102.627 220.048 102.265 219.703 102C219.362 101.735 218.936 101.602 218.425 101.602C217.932 101.602 217.516 101.729 217.175 101.983C216.838 102.237 216.582 102.591 216.408 103.045C216.233 103.5 216.146 104.03 216.146 104.636ZM225.138 112.273C224.884 112.273 224.653 112.252 224.445 112.21C224.236 112.172 224.081 112.131 223.979 112.085L224.388 110.693C224.698 110.777 224.975 110.813 225.217 110.801C225.46 110.79 225.674 110.699 225.859 110.528C226.049 110.358 226.215 110.08 226.359 109.693L226.57 109.114L223.376 100.273H225.195L227.405 107.045H227.496L229.706 100.273H231.53L227.933 110.165C227.767 110.619 227.554 111.004 227.297 111.318C227.039 111.636 226.732 111.875 226.376 112.034C226.02 112.193 225.607 112.273 225.138 112.273ZM238.435 112.273C238.181 112.273 237.95 112.252 237.741 112.21C237.533 112.172 237.378 112.131 237.276 112.085L237.685 110.693C237.995 110.777 238.272 110.813 238.514 110.801C238.757 110.79 238.971 110.699 239.156 110.528C239.346 110.358 239.512 110.08 239.656 109.693L239.866 109.114L236.673 100.273H238.491L240.702 107.045H240.793L243.003 100.273H244.827L241.23 110.165C241.063 110.619 240.851 111.004 240.594 111.318C240.336 111.636 240.029 111.875 239.673 112.034C239.317 112.193 238.904 112.273 238.435 112.273ZM249.803 109.176C248.984 109.176 248.27 108.989 247.661 108.614C247.051 108.239 246.577 107.714 246.24 107.04C245.903 106.366 245.734 105.578 245.734 104.676C245.734 103.771 245.903 102.979 246.24 102.301C246.577 101.623 247.051 101.097 247.661 100.722C248.27 100.347 248.984 100.159 249.803 100.159C250.621 100.159 251.335 100.347 251.945 100.722C252.554 101.097 253.028 101.623 253.365 102.301C253.702 102.979 253.871 103.771 253.871 104.676C253.871 105.578 253.702 106.366 253.365 107.04C253.028 107.714 252.554 108.239 251.945 108.614C251.335 108.989 250.621 109.176 249.803 109.176ZM249.808 107.75C250.339 107.75 250.778 107.61 251.126 107.33C251.475 107.049 251.732 106.676 251.899 106.21C252.07 105.744 252.155 105.231 252.155 104.67C252.155 104.114 252.07 103.602 251.899 103.136C251.732 102.667 251.475 102.29 251.126 102.006C250.778 101.722 250.339 101.58 249.808 101.58C249.274 101.58 248.831 101.722 248.479 102.006C248.13 102.29 247.871 102.667 247.7 103.136C247.534 103.602 247.45 104.114 247.45 104.67C247.45 105.231 247.534 105.744 247.7 106.21C247.871 106.676 248.13 107.049 248.479 107.33C248.831 107.61 249.274 107.75 249.808 107.75ZM261.295 105.381V100.273H263V109H261.33V107.489H261.239C261.038 107.955 260.716 108.343 260.273 108.653C259.833 108.96 259.286 109.114 258.631 109.114C258.07 109.114 257.574 108.991 257.142 108.744C256.714 108.494 256.377 108.125 256.131 107.636C255.888 107.148 255.767 106.544 255.767 105.824V100.273H257.466V105.619C257.466 106.214 257.631 106.687 257.96 107.04C258.29 107.392 258.718 107.568 259.244 107.568C259.563 107.568 259.879 107.489 260.193 107.33C260.511 107.17 260.775 106.93 260.983 106.608C261.195 106.286 261.299 105.877 261.295 105.381ZM269.357 100.273V101.636H264.589V100.273H269.357ZM265.868 98.1818H267.567V106.438C267.567 106.767 267.616 107.015 267.714 107.182C267.813 107.345 267.94 107.456 268.095 107.517C268.254 107.574 268.427 107.602 268.612 107.602C268.749 107.602 268.868 107.593 268.97 107.574C269.072 107.555 269.152 107.54 269.209 107.528L269.516 108.932C269.417 108.97 269.277 109.008 269.095 109.045C268.913 109.087 268.686 109.11 268.413 109.114C267.966 109.121 267.55 109.042 267.163 108.875C266.777 108.708 266.464 108.451 266.226 108.102C265.987 107.754 265.868 107.316 265.868 106.79V98.1818ZM273.122 103.818V109H271.423V97.3636H273.099V101.693H273.207C273.412 101.223 273.724 100.85 274.145 100.574C274.565 100.297 275.115 100.159 275.793 100.159C276.391 100.159 276.914 100.282 277.361 100.528C277.812 100.775 278.16 101.142 278.406 101.631C278.656 102.116 278.781 102.722 278.781 103.449V109H277.082V103.653C277.082 103.013 276.918 102.517 276.588 102.165C276.259 101.809 275.8 101.631 275.213 101.631C274.812 101.631 274.452 101.716 274.134 101.886C273.819 102.057 273.571 102.307 273.389 102.636C273.211 102.962 273.122 103.356 273.122 103.818ZM285.283 109V100.273H286.982V109H285.283ZM286.141 98.9261C285.845 98.9261 285.591 98.8277 285.379 98.6307C285.171 98.4299 285.067 98.1913 285.067 97.9148C285.067 97.6345 285.171 97.3958 285.379 97.1989C285.591 96.9981 285.845 96.8977 286.141 96.8977C286.436 96.8977 286.688 96.9981 286.896 97.1989C287.108 97.3958 287.214 97.6345 287.214 97.9148C287.214 98.1913 287.108 98.4299 286.896 98.6307C286.688 98.8277 286.436 98.9261 286.141 98.9261ZM290.966 103.818V109H289.267V100.273H290.898V101.693H291.006C291.206 101.231 291.521 100.86 291.949 100.58C292.381 100.299 292.924 100.159 293.58 100.159C294.174 100.159 294.695 100.284 295.142 100.534C295.589 100.78 295.936 101.148 296.182 101.636C296.428 102.125 296.551 102.729 296.551 103.449V109H294.852V103.653C294.852 103.021 294.688 102.527 294.358 102.17C294.028 101.811 293.576 101.631 293 101.631C292.606 101.631 292.256 101.716 291.949 101.886C291.646 102.057 291.405 102.307 291.227 102.636C291.053 102.962 290.966 103.356 290.966 103.818ZM34.8182 128.176C33.9735 128.176 33.2462 127.985 32.6364 127.602C32.0303 127.216 31.5644 126.684 31.2386 126.006C30.9129 125.328 30.75 124.551 30.75 123.676C30.75 122.79 30.9167 122.008 31.25 121.33C31.5833 120.648 32.053 120.116 32.6591 119.733C33.2652 119.35 33.9792 119.159 34.8011 119.159C35.464 119.159 36.0549 119.282 36.5739 119.528C37.0928 119.771 37.5114 120.112 37.8295 120.551C38.1515 120.991 38.3428 121.504 38.4034 122.091H36.75C36.6591 121.682 36.4508 121.33 36.125 121.034C35.803 120.739 35.3712 120.591 34.8295 120.591C34.3561 120.591 33.9413 120.716 33.5852 120.966C33.233 121.212 32.9583 121.564 32.7614 122.023C32.5644 122.477 32.4659 123.015 32.4659 123.636C32.4659 124.273 32.5625 124.822 32.7557 125.284C32.9489 125.746 33.2216 126.104 33.5739 126.358C33.9299 126.612 34.3485 126.739 34.8295 126.739C35.1515 126.739 35.4432 126.68 35.7045 126.562C35.9697 126.441 36.1913 126.269 36.3693 126.045C36.5511 125.822 36.678 125.553 36.75 125.239H38.4034C38.3428 125.803 38.1591 126.307 37.8523 126.75C37.5455 127.193 37.1345 127.542 36.6193 127.795C36.108 128.049 35.5076 128.176 34.8182 128.176ZM43.8963 128.176C43.0781 128.176 42.3641 127.989 41.7543 127.614C41.1444 127.239 40.6709 126.714 40.3338 126.04C39.9967 125.366 39.8281 124.578 39.8281 123.676C39.8281 122.771 39.9967 121.979 40.3338 121.301C40.6709 120.623 41.1444 120.097 41.7543 119.722C42.3641 119.347 43.0781 119.159 43.8963 119.159C44.7145 119.159 45.4285 119.347 46.0384 119.722C46.6482 120.097 47.1217 120.623 47.4588 121.301C47.7959 121.979 47.9645 122.771 47.9645 123.676C47.9645 124.578 47.7959 125.366 47.4588 126.04C47.1217 126.714 46.6482 127.239 46.0384 127.614C45.4285 127.989 44.7145 128.176 43.8963 128.176ZM43.902 126.75C44.4323 126.75 44.8717 126.61 45.2202 126.33C45.5687 126.049 45.8262 125.676 45.9929 125.21C46.1634 124.744 46.2486 124.231 46.2486 123.67C46.2486 123.114 46.1634 122.602 45.9929 122.136C45.8262 121.667 45.5687 121.29 45.2202 121.006C44.8717 120.722 44.4323 120.58 43.902 120.58C43.3679 120.58 42.9247 120.722 42.5724 121.006C42.224 121.29 41.9645 121.667 41.794 122.136C41.6274 122.602 41.544 123.114 41.544 123.67C41.544 124.231 41.6274 124.744 41.794 125.21C41.9645 125.676 42.224 126.049 42.5724 126.33C42.9247 126.61 43.3679 126.75 43.902 126.75ZM49.8608 128V119.273H51.4915V120.693H51.5994C51.7813 120.212 52.0786 119.837 52.4915 119.568C52.9044 119.295 53.3987 119.159 53.9744 119.159C54.5578 119.159 55.0464 119.295 55.4403 119.568C55.8381 119.841 56.1316 120.216 56.321 120.693H56.4119C56.6203 120.227 56.9517 119.856 57.4062 119.58C57.8608 119.299 58.4025 119.159 59.0312 119.159C59.8229 119.159 60.4688 119.407 60.9688 119.903C61.4725 120.4 61.7244 121.148 61.7244 122.148V128H60.0256V122.307C60.0256 121.716 59.8646 121.288 59.5426 121.023C59.2206 120.758 58.8362 120.625 58.3892 120.625C57.8362 120.625 57.4062 120.795 57.0994 121.136C56.7926 121.473 56.6392 121.907 56.6392 122.438V128H54.946V122.199C54.946 121.725 54.7983 121.345 54.5028 121.057C54.2074 120.769 53.8229 120.625 53.3494 120.625C53.0275 120.625 52.7301 120.71 52.4574 120.881C52.1884 121.047 51.9706 121.28 51.804 121.58C51.6411 121.879 51.5597 122.225 51.5597 122.619V128H49.8608ZM64.0014 128V119.273H65.6321V120.693H65.7401C65.9219 120.212 66.2192 119.837 66.6321 119.568C67.045 119.295 67.5393 119.159 68.1151 119.159C68.6984 119.159 69.187 119.295 69.581 119.568C69.9787 119.841 70.2723 120.216 70.4616 120.693H70.5526C70.7609 120.227 71.0923 119.856 71.5469 119.58C72.0014 119.299 72.5431 119.159 73.1719 119.159C73.9635 119.159 74.6094 119.407 75.1094 119.903C75.6132 120.4 75.8651 121.148 75.8651 122.148V128H74.1662V122.307C74.1662 121.716 74.0052 121.288 73.6832 121.023C73.3613 120.758 72.9768 120.625 72.5298 120.625C71.9768 120.625 71.5469 120.795 71.2401 121.136C70.9332 121.473 70.7798 121.907 70.7798 122.438V128H69.0866V122.199C69.0866 121.725 68.9389 121.345 68.6435 121.057C68.348 120.769 67.9635 120.625 67.4901 120.625C67.1681 120.625 66.8707 120.71 66.598 120.881C66.3291 121.047 66.1113 121.28 65.9446 121.58C65.7817 121.879 65.7003 122.225 65.7003 122.619V128H64.0014ZM83.6705 124.381V119.273H85.375V128H83.7045V126.489H83.6136C83.4129 126.955 83.0909 127.343 82.6477 127.653C82.2083 127.96 81.661 128.114 81.0057 128.114C80.4451 128.114 79.9489 127.991 79.517 127.744C79.089 127.494 78.7519 127.125 78.5057 126.636C78.2633 126.148 78.142 125.544 78.142 124.824V119.273H79.8409V124.619C79.8409 125.214 80.0057 125.687 80.3352 126.04C80.6648 126.392 81.0928 126.568 81.6193 126.568C81.9375 126.568 82.2538 126.489 82.5682 126.33C82.8864 126.17 83.1496 125.93 83.358 125.608C83.5701 125.286 83.6742 124.877 83.6705 124.381ZM89.3565 122.818V128H87.6577V119.273H89.2884V120.693H89.3963C89.5971 120.231 89.9115 119.86 90.3395 119.58C90.7713 119.299 91.3149 119.159 91.9702 119.159C92.5649 119.159 93.0857 119.284 93.5327 119.534C93.9796 119.78 94.3262 120.148 94.5724 120.636C94.8187 121.125 94.9418 121.729 94.9418 122.449V128H93.2429V122.653C93.2429 122.021 93.0781 121.527 92.7486 121.17C92.419 120.811 91.9664 120.631 91.3906 120.631C90.9967 120.631 90.6463 120.716 90.3395 120.886C90.0365 121.057 89.7959 121.307 89.6179 121.636C89.4437 121.962 89.3565 122.356 89.3565 122.818ZM97.2202 128V119.273H98.919V128H97.2202ZM98.0781 117.926C97.7827 117.926 97.5289 117.828 97.3168 117.631C97.1084 117.43 97.0043 117.191 97.0043 116.915C97.0043 116.634 97.1084 116.396 97.3168 116.199C97.5289 115.998 97.7827 115.898 98.0781 115.898C98.3736 115.898 98.6255 115.998 98.8338 116.199C99.0459 116.396 99.152 116.634 99.152 116.915C99.152 117.191 99.0459 117.43 98.8338 117.631C98.6255 117.828 98.3736 117.926 98.0781 117.926ZM105.278 119.273V120.636H100.511V119.273H105.278ZM101.79 117.182H103.489V125.438C103.489 125.767 103.538 126.015 103.636 126.182C103.735 126.345 103.862 126.456 104.017 126.517C104.176 126.574 104.348 126.602 104.534 126.602C104.67 126.602 104.79 126.593 104.892 126.574C104.994 126.555 105.074 126.54 105.131 126.528L105.438 127.932C105.339 127.97 105.199 128.008 105.017 128.045C104.835 128.087 104.608 128.11 104.335 128.114C103.888 128.121 103.472 128.042 103.085 127.875C102.699 127.708 102.386 127.451 102.148 127.102C101.909 126.754 101.79 126.316 101.79 125.79V117.182ZM108.232 131.273C107.978 131.273 107.747 131.252 107.538 131.21C107.33 131.172 107.175 131.131 107.072 131.085L107.482 129.693C107.792 129.777 108.069 129.813 108.311 129.801C108.554 129.79 108.768 129.699 108.953 129.528C109.143 129.358 109.309 129.08 109.453 128.693L109.663 128.114L106.47 119.273H108.288L110.499 126.045H110.589L112.8 119.273H114.624L111.027 129.165C110.86 129.619 110.648 130.004 110.391 130.318C110.133 130.636 109.826 130.875 109.47 131.034C109.114 131.193 108.701 131.273 108.232 131.273ZM120.455 131.273V119.273H122.114V120.688H122.256C122.354 120.506 122.496 120.295 122.682 120.057C122.867 119.818 123.125 119.61 123.455 119.432C123.784 119.25 124.22 119.159 124.761 119.159C125.466 119.159 126.095 119.337 126.648 119.693C127.201 120.049 127.634 120.562 127.949 121.233C128.267 121.903 128.426 122.71 128.426 123.653C128.426 124.597 128.269 125.405 127.955 126.08C127.64 126.75 127.208 127.267 126.659 127.631C126.11 127.991 125.483 128.17 124.778 128.17C124.248 128.17 123.814 128.081 123.477 127.903C123.144 127.725 122.883 127.517 122.693 127.278C122.504 127.04 122.358 126.828 122.256 126.642H122.153V131.273H120.455ZM122.119 123.636C122.119 124.25 122.208 124.788 122.386 125.25C122.564 125.712 122.822 126.074 123.159 126.335C123.496 126.593 123.909 126.722 124.398 126.722C124.905 126.722 125.33 126.587 125.67 126.318C126.011 126.045 126.269 125.676 126.443 125.21C126.621 124.744 126.71 124.22 126.71 123.636C126.71 123.061 126.623 122.544 126.449 122.085C126.278 121.627 126.021 121.265 125.676 121C125.335 120.735 124.909 120.602 124.398 120.602C123.905 120.602 123.489 120.729 123.148 120.983C122.811 121.237 122.555 121.591 122.381 122.045C122.206 122.5 122.119 123.03 122.119 123.636ZM130.33 128V119.273H131.972V120.659H132.062C132.222 120.189 132.502 119.82 132.903 119.551C133.309 119.278 133.767 119.142 134.278 119.142C134.384 119.142 134.509 119.146 134.653 119.153C134.801 119.161 134.917 119.17 135 119.182V120.807C134.932 120.788 134.811 120.767 134.636 120.744C134.462 120.718 134.288 120.705 134.114 120.705C133.712 120.705 133.354 120.79 133.04 120.96C132.729 121.127 132.483 121.36 132.301 121.659C132.119 121.955 132.028 122.292 132.028 122.67V128H130.33ZM139.834 128.176C139.016 128.176 138.302 127.989 137.692 127.614C137.082 127.239 136.608 126.714 136.271 126.04C135.934 125.366 135.766 124.578 135.766 123.676C135.766 122.771 135.934 121.979 136.271 121.301C136.608 120.623 137.082 120.097 137.692 119.722C138.302 119.347 139.016 119.159 139.834 119.159C140.652 119.159 141.366 119.347 141.976 119.722C142.586 120.097 143.059 120.623 143.396 121.301C143.733 121.979 143.902 122.771 143.902 123.676C143.902 124.578 143.733 125.366 143.396 126.04C143.059 126.714 142.586 127.239 141.976 127.614C141.366 127.989 140.652 128.176 139.834 128.176ZM139.839 126.75C140.37 126.75 140.809 126.61 141.158 126.33C141.506 126.049 141.764 125.676 141.93 125.21C142.101 124.744 142.186 124.231 142.186 123.67C142.186 123.114 142.101 122.602 141.93 122.136C141.764 121.667 141.506 121.29 141.158 121.006C140.809 120.722 140.37 120.58 139.839 120.58C139.305 120.58 138.862 120.722 138.51 121.006C138.161 121.29 137.902 121.667 137.732 122.136C137.565 122.602 137.482 123.114 137.482 123.67C137.482 124.231 137.565 124.744 137.732 125.21C137.902 125.676 138.161 126.049 138.51 126.33C138.862 126.61 139.305 126.75 139.839 126.75ZM149.457 131.455C148.764 131.455 148.168 131.364 147.668 131.182C147.171 131 146.766 130.759 146.452 130.46C146.137 130.161 145.902 129.833 145.747 129.477L147.207 128.875C147.31 129.042 147.446 129.218 147.616 129.403C147.791 129.593 148.026 129.754 148.321 129.886C148.62 130.019 149.005 130.085 149.474 130.085C150.118 130.085 150.651 129.928 151.071 129.614C151.491 129.303 151.702 128.807 151.702 128.125V126.409H151.594C151.491 126.595 151.344 126.801 151.151 127.028C150.961 127.256 150.7 127.453 150.366 127.619C150.033 127.786 149.599 127.869 149.065 127.869C148.376 127.869 147.755 127.708 147.202 127.386C146.652 127.061 146.217 126.581 145.895 125.949C145.577 125.312 145.418 124.53 145.418 123.602C145.418 122.674 145.575 121.879 145.889 121.216C146.207 120.553 146.643 120.045 147.196 119.693C147.749 119.337 148.376 119.159 149.077 119.159C149.618 119.159 150.056 119.25 150.389 119.432C150.723 119.61 150.982 119.818 151.168 120.057C151.357 120.295 151.503 120.506 151.605 120.688H151.73V119.273H153.395V128.193C153.395 128.943 153.221 129.559 152.872 130.04C152.524 130.521 152.052 130.877 151.457 131.108C150.866 131.339 150.2 131.455 149.457 131.455ZM149.44 126.46C149.929 126.46 150.342 126.347 150.679 126.119C151.02 125.888 151.277 125.559 151.452 125.131C151.63 124.699 151.719 124.182 151.719 123.58C151.719 122.992 151.632 122.475 151.457 122.028C151.283 121.581 151.027 121.233 150.69 120.983C150.353 120.729 149.937 120.602 149.44 120.602C148.929 120.602 148.503 120.735 148.162 121C147.821 121.261 147.563 121.617 147.389 122.068C147.219 122.519 147.134 123.023 147.134 123.58C147.134 124.152 147.221 124.653 147.395 125.085C147.569 125.517 147.827 125.854 148.168 126.097C148.512 126.339 148.937 126.46 149.44 126.46ZM155.673 128V119.273H157.315V120.659H157.406C157.565 120.189 157.846 119.82 158.247 119.551C158.652 119.278 159.111 119.142 159.622 119.142C159.728 119.142 159.853 119.146 159.997 119.153C160.145 119.161 160.26 119.17 160.344 119.182V120.807C160.276 120.788 160.154 120.767 159.98 120.744C159.806 120.718 159.632 120.705 159.457 120.705C159.056 120.705 158.698 120.79 158.384 120.96C158.073 121.127 157.827 121.36 157.645 121.659C157.463 121.955 157.372 122.292 157.372 122.67V128H155.673ZM164.276 128.193C163.723 128.193 163.223 128.091 162.776 127.886C162.329 127.678 161.974 127.377 161.713 126.983C161.455 126.589 161.327 126.106 161.327 125.534C161.327 125.042 161.421 124.636 161.611 124.318C161.8 124 162.056 123.748 162.378 123.562C162.7 123.377 163.06 123.237 163.457 123.142C163.855 123.047 164.26 122.975 164.673 122.926C165.196 122.866 165.62 122.816 165.946 122.778C166.272 122.737 166.509 122.67 166.656 122.58C166.804 122.489 166.878 122.341 166.878 122.136V122.097C166.878 121.6 166.738 121.216 166.457 120.943C166.181 120.67 165.768 120.534 165.219 120.534C164.647 120.534 164.196 120.661 163.866 120.915C163.541 121.165 163.315 121.443 163.19 121.75L161.594 121.386C161.783 120.856 162.06 120.428 162.423 120.102C162.791 119.773 163.213 119.534 163.69 119.386C164.168 119.235 164.67 119.159 165.196 119.159C165.545 119.159 165.914 119.201 166.304 119.284C166.698 119.364 167.065 119.511 167.406 119.727C167.751 119.943 168.033 120.252 168.253 120.653C168.473 121.051 168.582 121.568 168.582 122.205V128H166.923V126.807H166.855C166.745 127.027 166.58 127.242 166.361 127.455C166.141 127.667 165.859 127.843 165.514 127.983C165.17 128.123 164.757 128.193 164.276 128.193ZM164.645 126.83C165.115 126.83 165.516 126.737 165.849 126.551C166.187 126.366 166.442 126.123 166.616 125.824C166.795 125.521 166.884 125.197 166.884 124.852V123.727C166.823 123.788 166.705 123.845 166.531 123.898C166.361 123.947 166.166 123.991 165.946 124.028C165.726 124.062 165.512 124.095 165.304 124.125C165.096 124.152 164.921 124.174 164.781 124.193C164.452 124.235 164.151 124.305 163.878 124.403C163.609 124.502 163.393 124.644 163.23 124.83C163.071 125.011 162.991 125.254 162.991 125.557C162.991 125.977 163.147 126.295 163.457 126.511C163.768 126.723 164.164 126.83 164.645 126.83ZM170.845 128V119.273H172.476V120.693H172.584C172.766 120.212 173.063 119.837 173.476 119.568C173.889 119.295 174.383 119.159 174.959 119.159C175.542 119.159 176.031 119.295 176.425 119.568C176.822 119.841 177.116 120.216 177.305 120.693H177.396C177.605 120.227 177.936 119.856 178.391 119.58C178.845 119.299 179.387 119.159 180.016 119.159C180.807 119.159 181.453 119.407 181.953 119.903C182.457 120.4 182.709 121.148 182.709 122.148V128H181.01V122.307C181.01 121.716 180.849 121.288 180.527 121.023C180.205 120.758 179.821 120.625 179.374 120.625C178.821 120.625 178.391 120.795 178.084 121.136C177.777 121.473 177.624 121.907 177.624 122.438V128H175.93V122.199C175.93 121.725 175.783 121.345 175.487 121.057C175.192 120.769 174.807 120.625 174.334 120.625C174.012 120.625 173.714 120.71 173.442 120.881C173.173 121.047 172.955 121.28 172.788 121.58C172.625 121.879 172.544 122.225 172.544 122.619V128H170.845ZM191.526 121.403L189.986 121.676C189.921 121.479 189.819 121.292 189.679 121.114C189.543 120.936 189.357 120.79 189.122 120.676C188.887 120.562 188.594 120.506 188.241 120.506C187.76 120.506 187.359 120.614 187.037 120.83C186.715 121.042 186.554 121.316 186.554 121.653C186.554 121.945 186.662 122.18 186.878 122.358C187.094 122.536 187.442 122.682 187.923 122.795L189.31 123.114C190.113 123.299 190.711 123.585 191.105 123.972C191.499 124.358 191.696 124.86 191.696 125.477C191.696 126 191.545 126.466 191.241 126.875C190.942 127.28 190.524 127.598 189.986 127.83C189.452 128.061 188.832 128.176 188.128 128.176C187.151 128.176 186.353 127.968 185.736 127.551C185.118 127.131 184.74 126.534 184.599 125.761L186.241 125.511C186.344 125.939 186.554 126.263 186.872 126.483C187.19 126.699 187.605 126.807 188.116 126.807C188.673 126.807 189.118 126.691 189.452 126.46C189.785 126.225 189.952 125.939 189.952 125.602C189.952 125.33 189.849 125.1 189.645 124.915C189.444 124.729 189.135 124.589 188.719 124.494L187.241 124.17C186.427 123.985 185.825 123.689 185.435 123.284C185.048 122.879 184.855 122.366 184.855 121.744C184.855 121.229 184.999 120.778 185.287 120.392C185.575 120.006 185.973 119.705 186.48 119.489C186.988 119.269 187.569 119.159 188.224 119.159C189.168 119.159 189.91 119.364 190.452 119.773C190.993 120.178 191.351 120.722 191.526 121.403ZM194.683 128.108C194.373 128.108 194.106 127.998 193.882 127.778C193.659 127.555 193.547 127.286 193.547 126.972C193.547 126.661 193.659 126.396 193.882 126.176C194.106 125.953 194.373 125.841 194.683 125.841C194.994 125.841 195.261 125.953 195.484 126.176C195.708 126.396 195.82 126.661 195.82 126.972C195.82 127.18 195.767 127.371 195.661 127.545C195.558 127.716 195.422 127.852 195.251 127.955C195.081 128.057 194.892 128.108 194.683 128.108Z" fill="white"/>
<path d="M337.417 15.25V3.5C337.417 1.42247 338.242 -0.569968 339.711 -2.039C341.18 -3.50804 343.172 -4.33333 345.25 -4.33333H384.417C386.494 -4.33333 388.487 -3.50804 389.956 -2.039C391.425 -0.569968 392.25 1.42247 392.25 3.5V50.5C392.25 52.5775 391.425 54.57 389.956 56.039C388.487 57.508 386.494 58.3333 384.417 58.3333H360.917M360.917 58.3333V34.1597C360.916 32.0823 360.091 30.0902 358.621 28.6215L346.871 16.8715C345.403 15.403 343.41 14.578 341.333 14.578C339.256 14.578 337.264 15.403 335.795 16.8715L324.045 28.6215C322.576 30.0902 321.75 32.0823 321.75 34.1597V50.5C321.75 52.5775 322.575 54.57 324.044 56.039C325.513 57.508 327.506 58.3333 329.583 58.3333H341.333M360.917 58.3333H341.333M341.333 58.3333V42.6667M376.591 27H376.583" stroke="white" stroke-opacity="0.1" stroke-width="2" stroke-linecap="round" stroke-linejoin="round"/>
</g>
<path d="M0.5 0.5H347C368.815 0.5 386.5 18.1848 386.5 40V151.5H40C18.1847 151.5 0.5 133.815 0.5 112V0.5Z" stroke="white" stroke-opacity="0.1"/>
<defs>
<clipPath id="clip0_167_1044">
<path d="M0 0H347C369.091 0 387 17.9086 387 40V152H40C17.9086 152 0 134.091 0 112V0Z" fill="white"/>
</clipPath>
</defs>
</svg>
