<svg width="98" height="73" viewBox="0 0 98 73" fill="none" xmlns="http://www.w3.org/2000/svg">
<path d="M32.1557 5.41327C26.1557 14.6133 27.4891 27.5466 34.4224 26.2133C39.7557 25.2799 45.0891 10.2133 42.4224 3.41327C40.5557 -1.78673 36.4224 -0.986729 32.1557 5.41327Z" fill="white"/>
<path d="M69.6231 7.67959C64.9564 10.7463 63.4897 24.8796 67.0897 31.9463C69.8897 37.2796 73.7564 37.1463 77.2231 31.5463C80.9564 25.6796 80.1564 14.6129 75.7564 9.94625C72.4231 6.34625 71.8897 6.21292 69.6231 7.67959Z" fill="white"/>
<path d="M0.288106 21.9462C-1.57856 29.2795 5.88811 47.6795 15.0881 58.2129C17.8881 61.5462 23.4881 65.5462 28.8214 68.2129C37.2214 72.3462 38.5548 72.6129 51.7548 72.6129C64.4214 72.6129 66.5548 72.2129 74.1548 68.7462C83.8881 64.2129 97.0881 51.0129 97.0881 45.6795C97.0881 41.0129 93.7548 41.8129 84.5548 49.1462C74.4214 57.1462 69.6214 59.6795 61.2214 61.2795C53.2214 62.7462 40.2881 60.8795 33.2214 57.2795C24.8214 53.0129 12.4214 37.2795 7.48811 24.6129C4.95477 18.2129 1.62144 16.8795 0.288106 21.9462Z" fill="white"/>
</svg>
