<svg width="77" height="90" viewBox="0 0 77 90" fill="none" xmlns="http://www.w3.org/2000/svg">
<path d="M60.283 75.67C59.6952 76.5701 54.4411 77.3264 48.42 77.5028C39.0557 77.7477 37.4743 77.3866 36.9196 75.4836C35.333 70.7145 37.5338 69.6431 48.4795 69.7594C60.349 70.0641 63.3391 71.4439 60.283 75.67Z" fill="white"/>
<path d="M42.8011 46.9247C31.2635 54.5203 27.7238 55.6456 27.977 51.3865C28.0798 49.6562 32.0201 46.284 39.8059 41.1369C46.3383 36.8502 52.0169 33.4477 52.6824 33.4873C53.2148 33.5189 53.6601 35.0147 53.5573 36.7449C53.4149 39.1407 50.7279 41.6524 42.8011 46.9247Z" fill="white"/>
<path d="M28.4901 23.5961C22.4319 33.3873 15.247 41.9094 13.8383 40.8907C11.4043 39.1432 12.8474 35.0884 19.0769 26.9102C22.423 22.3006 26.051 17.4406 27.0776 15.8988C28.1042 14.357 29.3812 13.0972 30.0467 13.1367C32.8418 13.3028 32.1814 17.6714 28.4901 23.5961Z" fill="white"/>
</svg>
