<svg width="114" height="121" viewBox="0 0 114 121" fill="none" xmlns="http://www.w3.org/2000/svg">
<path d="M21.9899 57.4862C26.4643 67.5171 38.0528 73.4124 40.6935 66.8645C42.8024 61.8776 33.0378 49.2245 25.8786 47.7763C20.4976 46.5238 18.9276 50.4302 21.9899 57.4862Z" fill="black"/>
<path d="M44.2172 27.2391C44.2622 32.823 55.3401 41.7215 63.2295 42.5303C69.2289 43.071 71.2142 39.7502 68.3901 33.8003C65.4866 27.4817 55.7555 22.1509 49.4483 23.316C44.6159 24.1636 44.2146 24.5393 44.2172 27.2391Z" fill="black"/>
<path d="M18.5933 93.2262C23.7415 98.7722 43.2495 102.48 57.089 100.465C61.4081 99.9206 67.8061 97.3857 72.9393 94.3517C80.9682 89.5369 81.9154 88.5614 89.0755 77.472C95.9463 66.8307 96.7674 64.8215 97.9775 56.5564C99.4487 45.9204 95.5194 27.6709 91.0389 24.778C87.1184 22.2467 85.9824 25.4809 87.1528 37.1877C88.377 50.0401 87.9016 55.4468 84.6893 63.3715C81.582 70.8879 72.9984 80.7407 66.1409 84.7247C58.0001 89.4672 38.0564 91.3502 24.7391 88.6239C17.9883 87.2806 15.06 89.3577 18.5933 93.2262Z" fill="black"/>
</svg>
