<svg width="59" height="59" viewBox="0 0 59 59" fill="none" xmlns="http://www.w3.org/2000/svg">
<g clip-path="url(#clip0_167_655)">
<mask id="mask0_167_655" style="mask-type:luminance" maskUnits="userSpaceOnUse" x="0" y="0" width="59" height="59">
<path d="M0 0H58.9V58.91H0V0Z" fill="white"/>
</mask>
<g mask="url(#mask0_167_655)">
<path d="M51.9657 10.3181L48.6025 6.95315L35.4195 20.1413L31.849 29.455V0H27.0828V24.7027C27.0834 25.0148 27.0223 25.324 26.9032 25.6124C26.784 25.9009 26.6091 26.163 26.3885 26.3837C26.1679 26.6044 25.9058 26.7794 25.6175 26.8987C25.3291 27.0179 25.02 27.079 24.708 27.0786H0V31.8473H17.9492C20.0696 31.8473 21.1369 34.4146 19.6384 35.9139L6.9502 48.6078L10.3293 51.9728L23.5129 38.784L27.0822 29.455V58.91H31.8484V34.2232C31.8479 33.9111 31.9089 33.6019 32.0281 33.3135C32.1472 33.025 32.3221 32.7629 32.5427 32.5422C32.7634 32.3215 33.0254 32.1465 33.3138 32.0272C33.6021 31.908 33.9112 31.8469 34.2233 31.8473H58.9V27.0786H40.9667C38.831 27.0786 37.779 24.5113 39.2775 23.012L51.9657 10.3181Z" fill="white"/>
</g>
</g>
<defs>
<clipPath id="clip0_167_655">
<rect width="58.9" height="58.91" fill="white"/>
</clipPath>
</defs>
</svg>
