<svg width="49" height="44" viewBox="0 0 49 44" fill="none" xmlns="http://www.w3.org/2000/svg">
<path d="M36.633 0C30.8405 10.28 27.6401 15.4064 24.4132 15.4064C21.1863 15.4064 17.9859 10.28 12.2198 0C17.9859 10.28 20.7367 15.7048 19.1232 18.5528C17.5098 21.4008 11.5586 21.6992 0 21.6992C11.9818 21.6992 17.933 21.9975 19.2819 25.1439C20.5515 28.0733 17.8007 33.471 12.2198 43.3984C18.0123 33.1184 21.2128 27.9919 24.4397 27.9919C27.6665 27.9919 30.867 33.1184 36.6595 43.3984C30.5231 32.4674 27.8252 27.0426 30.0999 24.3302C32.1101 21.9433 38.0349 21.6992 48.8793 21.6992C36.6595 21.6992 30.7083 21.3737 29.518 18.0374C28.4336 15.0538 31.1844 9.68326 36.633 0Z" fill="white"/>
</svg>
